<?xml version="1.0" encoding="UTF-8"?>
<svg version="1.1" xmlns="http://www.w3.org/2000/svg" width="915" height="184">
<path d="M0 0 C0.25447559 2.11180019 0.25447559 2.11180019 0.26069641 4.77598572 C0.26778122 5.78409805 0.27486603 6.79221039 0.28216553 7.83087158 C0.27968811 8.94105652 0.27721069 10.05124146 0.2746582 11.19506836 C0.27976913 12.36097 0.28488007 13.52687164 0.29014587 14.72810364 C0.30409518 18.59873527 0.30308108 22.46918991 0.30078125 26.33984375 C0.30368428 28.34326972 0.30659144 30.34669576 0.310188 32.3501206 C0.3212921 38.65197033 0.32171562 44.95376045 0.31567383 51.25561523 C0.30963302 57.76084403 0.32194552 64.26585659 0.3432439 70.77104849 C0.36084697 76.3524199 0.36686329 81.93372241 0.36360615 87.51512057 C0.36179096 90.85029263 0.36575927 94.1852757 0.37832069 97.52042961 C0.3906063 101.23897001 0.38394043 104.95700528 0.37231445 108.67553711 C0.38378006 110.33777817 0.38378006 110.33777817 0.39547729 112.03359985 C0.38846298 113.04453201 0.38144867 114.05546417 0.3742218 115.09703064 C0.37438954 115.97658889 0.37455729 116.85614714 0.37473011 117.76235867 C-0.08157377 120.48710482 -0.79736823 121.37412111 -3 123 C-5.77148437 123.38818359 -5.77148437 123.38818359 -9.09375 123.3984375 C-10.28871094 123.40230469 -11.48367187 123.40617187 -12.71484375 123.41015625 C-14.58849609 123.39275391 -14.58849609 123.39275391 -16.5 123.375 C-17.74910156 123.38660156 -18.99820313 123.39820313 -20.28515625 123.41015625 C-22.07759766 123.40435547 -22.07759766 123.40435547 -23.90625 123.3984375 C-25.00259766 123.39505371 -26.09894531 123.39166992 -27.22851562 123.38818359 C-30.41966355 122.94122049 -31.09238799 122.51659665 -33 120 C-33.37752342 117.76515198 -33.37752342 117.76515198 -33.38095093 115.10375977 C-33.3894104 114.09427277 -33.39786987 113.08478577 -33.40658569 112.04470825 C-33.400513 110.93811859 -33.39444031 109.83152893 -33.38818359 108.69140625 C-33.39344055 107.52535858 -33.39869751 106.35931091 -33.40411377 105.15792847 C-33.41734809 101.29265052 -33.40856318 97.42778235 -33.3984375 93.5625 C-33.40045724 90.88353968 -33.40336296 88.20459194 -33.40713501 85.52563477 C-33.4125942 79.90669288 -33.40539674 74.28786925 -33.39111328 68.66894531 C-33.37478634 62.1710681 -33.38007474 55.67347328 -33.3965925 49.17560291 C-33.41020278 43.59844704 -33.41212931 38.02137621 -33.40427649 32.4442091 C-33.3995974 29.11241926 -33.40015785 25.78079142 -33.40888596 22.44900513 C-33.41647873 18.73533862 -33.40492594 15.02221935 -33.38818359 11.30859375 C-33.39425629 10.20200409 -33.40032898 9.09541443 -33.40658569 7.95529175 C-33.39812622 6.94580475 -33.38966675 5.93631775 -33.38095093 4.89624023 C-33.37981985 4.0179808 -33.37868877 3.13972137 -33.37752342 2.23484802 C-32.91940189 -0.47712145 -32.17058333 -1.35907161 -30 -3 C-27.73510742 -3.46411133 -27.73510742 -3.46411133 -25.10546875 -3.58203125 C-24.14962891 -3.62650391 -23.19378906 -3.67097656 -22.20898438 -3.71679688 C-21.21189453 -3.74837891 -20.21480469 -3.77996094 -19.1875 -3.8125 C-17.70926758 -3.88887695 -17.70926758 -3.88887695 -16.20117188 -3.96679688 C-4.43309411 -4.43309411 -4.43309411 -4.43309411 0 0 Z " fill="#50BE24" transform="translate(186,56)"/>
<path d="M0 0 C1.04994141 -0.01224609 2.09988281 -0.02449219 3.18164062 -0.03710938 C4.69854492 -0.04000977 4.69854492 -0.04000977 6.24609375 -0.04296875 C7.16962646 -0.04707764 8.09315918 -0.05118652 9.04467773 -0.05541992 C11.71004229 0.20173491 13.31848422 0.74711228 15.5625 2.1875 C17.22419784 5.51089567 16.71886118 9.23369046 16.72363281 12.88818359 C16.73108017 14.23960701 16.73108017 14.23960701 16.73867798 15.61833191 C16.75331828 18.60754146 16.76010457 21.59669795 16.765625 24.5859375 C16.77137474 26.65857953 16.77713249 28.73122154 16.78289795 30.80386353 C16.79341314 35.15342457 16.79925247 39.50296709 16.80273438 43.85253906 C16.8082214 49.43030482 16.83225178 55.00782674 16.86070633 60.58551598 C16.87931484 64.86799844 16.88453735 69.15042195 16.88607025 73.43294144 C16.88910115 75.48947102 16.89714432 77.54599945 16.91025543 79.60248947 C16.92727915 82.47785839 16.92544469 85.35262871 16.91894531 88.22802734 C16.93276749 89.50617058 16.93276749 89.50617058 16.9468689 90.81013489 C16.92201971 94.31330865 16.88350693 96.58673446 15.21244812 99.71412659 C11.42572894 103.09559737 4.91421067 101.79216291 0.125 101.75 C-1.11572266 101.77384766 -2.35644531 101.79769531 -3.63476562 101.82226562 C-4.82650391 101.82033203 -6.01824219 101.81839844 -7.24609375 101.81640625 C-8.33720459 101.81713135 -9.42831543 101.81785645 -10.55249023 101.81860352 C-13.4375 101.1875 -13.4375 101.1875 -15.5864563 99.20166016 C-18.08681662 95.13018067 -17.99403163 92.01742707 -17.93920898 87.32983398 C-17.94461197 86.4479541 -17.95001495 85.56607422 -17.95558167 84.6574707 C-17.96806562 81.74916794 -17.95158146 78.84185565 -17.93359375 75.93359375 C-17.93374873 73.91007943 -17.93523757 71.88656481 -17.93800354 69.86305237 C-17.93938734 65.6254461 -17.92683141 61.38817837 -17.90405273 57.15063477 C-17.87565016 51.71749805 -17.87841067 46.28492305 -17.89114285 40.85174465 C-17.8980953 36.67474057 -17.89031597 32.49786647 -17.87788582 28.32087898 C-17.87336839 26.31739869 -17.87303705 24.31390446 -17.87695122 22.3104229 C-17.87985962 19.51191431 -17.86337479 16.71418201 -17.84155273 13.91577148 C-17.84605438 13.08709061 -17.85055603 12.25840973 -17.85519409 11.40461731 C-17.81239103 8.10314525 -17.68161235 5.64059932 -16.0997467 2.70448303 C-11.84658016 -1.17699946 -5.38468303 0.00329338 0 0 Z " fill="#97E5FB" transform="translate(72.4375,77.8125)"/>
<path d="M0 0 C5.1973405 4.36024672 7.71277887 9.61267151 8.35546875 16.35546875 C8.375 18.5625 8.375 18.5625 8.125 21.9375 C6.06331015 22.13370767 4.00059002 22.31910753 1.9375 22.5 C0.78894531 22.60441406 -0.35960937 22.70882812 -1.54296875 22.81640625 C-4.56131199 22.92609985 -6.96423936 22.67752389 -9.875 21.9375 C-10.05675781 21.31101562 -10.23851562 20.68453125 -10.42578125 20.0390625 C-10.80283203 18.81316406 -10.80283203 18.81316406 -11.1875 17.5625 C-11.43113281 16.75039062 -11.67476563 15.93828125 -11.92578125 15.1015625 C-12.78868185 12.60565371 -12.78868185 12.60565371 -15.875 10.9375 C-21.422212 10.36380616 -21.422212 10.36380616 -26.375 12.4375 C-28.06459029 15.25348381 -28.3934812 17.57256136 -28.50390625 20.83984375 C-27.49312806 24.21119709 -25.55262143 25.7067399 -22.875 27.9375 C-20.36812601 29.27258114 -17.77209316 30.29012716 -15.125 31.3125 C-6.7098425 34.7776774 1.07249401 39.05559066 6.125 46.9375 C9.2752449 54.71502771 9.94775894 64.90480896 7.0625 72.87109375 C2.95595868 79.48842799 -2.88860845 83.3687381 -10.375 85.25 C-21.16775535 87.19047827 -30.37723141 85.52908754 -39.64453125 79.56640625 C-45.46453207 75.3160729 -48.48592141 69.99582618 -49.875 62.9375 C-49.875 60.6275 -49.875 58.3175 -49.875 55.9375 C-43.605 55.9375 -37.335 55.9375 -30.875 55.9375 C-30.648125 57.525625 -30.42125 59.11375 -30.1875 60.75 C-29.36404486 64.83911215 -29.36404486 64.83911215 -26.8125 68.0625 C-22.85272295 69.24200806 -18.96327969 69.71840736 -14.875 68.9375 C-12.51659483 67.08293593 -11.92631833 66.09878618 -11 63.1875 C-10.84648042 59.195991 -11.65763907 56.22433369 -13.875 52.9375 C-16.23479621 51.14411238 -18.78333233 50.0340783 -21.5 48.875 C-22.95111572 48.20068187 -24.40035418 47.52230874 -25.84765625 46.83984375 C-26.89203857 46.35427002 -26.89203857 46.35427002 -27.95751953 45.85888672 C-36.14517991 41.92455641 -43.12897076 36.3101659 -47.3125 28.125 C-48.94244557 18.88864175 -48.18932428 11.21586829 -43.1875 3.25 C-31.47976282 -8.45773718 -13.49330948 -9.36360592 0 0 Z " fill="#E0E0E0" transform="translate(521.875,73.0625)"/>
<path d="M0 0 C10.13618565 8.37337075 12.43662028 15.42958249 13.875 28.375 C7.605 28.375 1.335 28.375 -5.125 28.375 C-6.115 23.755 -7.105 19.135 -8.125 14.375 C-16.90882186 12.93731817 -16.90882186 12.93731817 -25.125 15.375 C-32.66571716 28.37623648 -30.29852991 49.870095 -27.953125 64.203125 C-26.64358424 67.63758097 -24.38421216 69.74539392 -21.125 71.375 C-15.71365248 71.72984246 -12.5371022 71.88562617 -8.125 68.375 C-6.88194691 65.45108684 -6.88194691 65.45108684 -6.3125 62.1875 C-5.920625 60.269375 -5.52875 58.35125 -5.125 56.375 C1.145 56.375 7.415 56.375 13.875 56.375 C13.26335582 67.0787731 11.10572574 75.29867106 3.0234375 82.75 C-4.46450152 88.41360479 -14.24404288 89.12186545 -23.3203125 88.13671875 C-31.42867167 86.73823868 -37.73735041 82.78900757 -42.5 76.0625 C-52.03514093 60.24103348 -50.99976163 36.88804692 -47.125 19.375 C-44.46836353 10.36447263 -40.45379224 4.19498484 -32.22265625 -0.58984375 C-22.37218481 -5.45087714 -9.68733723 -5.03741536 0 0 Z " fill="#E0E0E0" transform="translate(249.125,70.625)"/>
<path d="M0 0 C5.94 0 11.88 0 18 0 C18.33 9.9 18.66 19.8 19 30 C21.31 28.68 23.62 27.36 26 26 C30.65912265 25.1311181 34.84470099 25.6076343 39.3125 27.125 C45.58532971 31.50139282 47.66676866 35.67831528 49.40014648 42.96313477 C51.00063947 52.04491667 50.29916373 61.5696961 50.1875 70.75 C50.17242691 72.91144902 50.15874315 75.07290819 50.14648438 77.234375 C50.11368487 82.48980774 50.06369376 87.74485559 50 93 C47.02077407 93.02683987 44.04178705 93.04676037 41.0625 93.0625 C39.78729492 93.07506836 39.78729492 93.07506836 38.48632812 93.08789062 C37.67744141 93.09111328 36.86855469 93.09433594 36.03515625 93.09765625 C35.2862915 93.10289307 34.53742676 93.10812988 33.76586914 93.11352539 C32 93 32 93 31 92 C30.89326185 90.54283427 30.85380701 89.08065328 30.84228516 87.61962891 C30.83202301 86.68841217 30.82176086 85.75719543 30.81118774 84.79776001 C30.80388641 83.78426483 30.79658508 82.77076965 30.7890625 81.7265625 C30.76099546 79.60155478 30.73233101 77.47655487 30.703125 75.3515625 C30.66181783 71.98502811 30.62495028 68.61863999 30.59863281 65.25195312 C30.57109607 62.01401205 30.52522321 58.77674563 30.4765625 55.5390625 C30.47330963 54.52961578 30.47005676 53.52016907 30.46670532 52.48013306 C30.44185562 51.07385147 30.44185562 51.07385147 30.41650391 49.63916016 C30.40841705 48.81388824 30.4003302 47.98861633 30.39199829 47.13833618 C29.90381379 44.47530779 29.20484732 43.54865171 27 42 C22.65490784 42.0506662 22.65490784 42.0506662 19 44 C18.8774645 45.53382679 18.82222062 47.07310519 18.79467773 48.61157227 C18.77473251 49.59251358 18.75478729 50.5734549 18.73423767 51.5841217 C18.71752518 52.6507756 18.70081268 53.7174295 18.68359375 54.81640625 C18.66281265 55.9025975 18.64203156 56.98878876 18.62062073 58.1078949 C18.55500558 61.59269627 18.49618489 65.07757568 18.4375 68.5625 C18.39432615 70.91862801 18.35071224 73.27474799 18.30664062 75.63085938 C18.19931203 81.42049205 18.09807869 87.21020354 18 93 C12.06 93 6.12 93 0 93 C-1.125 85.125 -1.125 85.125 -1.08229065 81.89332581 C-1.07525116 81.16008591 -1.06821167 80.42684601 -1.06095886 79.67138672 C-1.04801285 78.89239014 -1.03506683 78.11339355 -1.02172852 77.31079102 C-1.01212097 76.47096176 -1.00251343 75.63113251 -0.99261475 74.76585388 C-0.95984201 72.01178011 -0.91942817 69.25787596 -0.87890625 66.50390625 C-0.85458385 64.58577559 -0.83074138 62.66763879 -0.80735779 60.74949646 C-0.7447277 55.7172645 -0.67560205 50.68514218 -0.60510254 45.65301514 C-0.53422801 40.5115658 -0.46952571 35.37003914 -0.40429688 30.22851562 C-0.2755564 20.15225635 -0.13937982 10.07611773 0 0 Z " fill="#E1E1E1" transform="translate(272,64)"/>
<path d="M0 0 C1.09248047 -0.00515625 2.18496094 -0.0103125 3.31054688 -0.015625 C4.44685547 -0.00015625 5.58316406 0.0153125 6.75390625 0.03125 C8.45256836 0.00804688 8.45256836 0.00804688 10.18554688 -0.015625 C11.82620117 -0.00789063 11.82620117 -0.00789063 13.5 0 C14.49572021 0.00451172 15.49144043 0.00902344 16.51733398 0.01367188 C20.18084996 0.6910948 21.70563985 1.88193537 24.31640625 4.53125 C24.94459534 7.68078613 24.94459534 7.68078613 24.94750977 11.43945312 C24.95466507 12.12611557 24.96182037 12.81277802 24.9691925 13.52024841 C24.98607098 15.78501371 24.96668549 18.04779685 24.9453125 20.3125 C24.9461413 21.88903975 24.94860108 23.46557942 24.95262146 25.04211426 C24.95547884 28.34425912 24.94078525 31.64572547 24.91333008 34.94775391 C24.87924645 39.17829488 24.88526553 43.40762269 24.90399265 47.63822174 C24.91456661 50.89310804 24.90562142 54.14771253 24.89060783 57.40257263 C24.8854284 58.96226667 24.88590495 60.52199017 24.89215279 62.0816803 C24.89761018 64.26277834 24.87721733 66.44214609 24.84985352 68.62304688 C24.84365494 69.86340698 24.83745636 71.10376709 24.83106995 72.38171387 C24.22254602 76.10563711 23.30570002 77.29708522 20.31640625 79.53125 C17.5390625 80.03295898 17.5390625 80.03295898 14.37890625 80.02734375 C12.66574219 80.02831055 12.66574219 80.02831055 10.91796875 80.02929688 C9.72945312 80.00931641 8.5409375 79.98933594 7.31640625 79.96875 C6.12789062 79.97583984 4.939375 79.98292969 3.71484375 79.99023438 C-4.90968564 79.92696187 -4.90968564 79.92696187 -7.8248291 78.43640137 C-10.56549895 75.62733627 -10.19139024 73.51869021 -10.20117188 69.64477539 C-10.20818115 68.9485054 -10.21519043 68.25223541 -10.22241211 67.53486633 C-10.24002195 65.23247426 -10.22835882 62.9313109 -10.21484375 60.62890625 C-10.21753815 59.02851628 -10.22142013 57.4281279 -10.22644043 55.82774353 C-10.23233973 52.47265038 -10.22376019 49.11798311 -10.20507812 45.76293945 C-10.18230621 41.46402803 -10.19539696 37.16611645 -10.21936798 32.86724186 C-10.23383031 29.56176741 -10.22921777 26.25652952 -10.21885681 22.9510479 C-10.21618975 21.36622436 -10.21945862 19.78137929 -10.22877502 18.19658089 C-10.23894638 15.9795163 -10.2234336 13.76406379 -10.20117188 11.54711914 C-10.1979895 10.28597794 -10.19480713 9.02483673 -10.19152832 7.72547913 C-9.21661736 1.59459307 -5.83017978 0.02644715 0 0 Z " fill="#BAEB6C" transform="translate(113.68359375,99.46875)"/>
<path d="M0 0 C5.77119733 3.98487435 7.71994213 8.63811833 9.16967773 15.32470703 C9.79578664 20.1207348 9.7476643 24.84842472 9.72265625 29.6796875 C9.7212413 30.71441193 9.71982635 31.74913635 9.71836853 32.81521606 C9.71279039 36.10600732 9.70024188 39.39672946 9.6875 42.6875 C9.68248218 44.92447818 9.67791976 47.16145743 9.67382812 49.3984375 C9.66282812 54.86981508 9.64611177 60.3411526 9.625 65.8125 C7.02119004 66.00726139 4.41724467 66.19358614 1.8125 66.375 C0.70551758 66.45911133 0.70551758 66.45911133 -0.42382812 66.54492188 C-3.74288516 66.77019724 -6.18732564 66.87505812 -9.375 65.8125 C-9.36452637 64.58208984 -9.35405273 63.35167969 -9.34326172 62.08398438 C-9.30689129 57.49189191 -9.28403775 52.89981203 -9.26513672 48.30761719 C-9.25511785 46.32517349 -9.241499 44.34274441 -9.22412109 42.36035156 C-9.19969118 39.50061416 -9.1884755 36.64107321 -9.1796875 33.78125 C-9.16936493 32.90384155 -9.15904236 32.02643311 -9.14840698 31.12243652 C-9.14742839 25.67909628 -9.84546165 21.04150999 -11.375 15.8125 C-16.65699593 14.61261955 -16.65699593 14.61261955 -21.375 16.8125 C-21.85072817 18.98665043 -21.85072817 18.98665043 -21.80737305 21.53759766 C-21.82716721 22.51846344 -21.84696136 23.49932922 -21.86735535 24.50991821 C-21.87694023 26.10215714 -21.87694023 26.10215714 -21.88671875 27.7265625 C-21.90466995 28.81133881 -21.92262115 29.89611511 -21.94111633 31.01376343 C-21.9954231 34.48830239 -22.02918068 37.96270242 -22.0625 41.4375 C-22.09565504 43.78908192 -22.13014298 46.14064546 -22.16601562 48.4921875 C-22.25116143 54.26552505 -22.31787547 60.03881993 -22.375 65.8125 C-28.315 65.8125 -34.255 65.8125 -40.375 65.8125 C-40.375 44.0325 -40.375 22.2525 -40.375 -0.1875 C-34.765 -0.1875 -29.155 -0.1875 -23.375 -0.1875 C-23.045 1.1325 -22.715 2.4525 -22.375 3.8125 C-20.9828125 2.8534375 -20.9828125 2.8534375 -19.5625 1.875 C-13.46902159 -2.06783897 -6.81079549 -2.39639101 0 0 Z " fill="#E0E0E0" transform="translate(796.375,91.1875)"/>
<path d="M0 0 C4.3539934 3.81778731 6.66600569 8.40069705 7.20266724 14.18405151 C7.3099984 16.77884032 7.35488185 19.36795099 7.37890625 21.96484375 C7.39590073 22.91637833 7.4128952 23.8679129 7.43040466 24.84828186 C7.4833264 27.8779544 7.52371402 30.90761621 7.5625 33.9375 C7.6066101 36.9637424 7.65348823 39.98988602 7.70530701 43.01600647 C7.73693994 44.89470452 7.76392652 46.77348844 7.78553772 48.65232849 C7.8619463 53.52927208 8.18732594 58.18905144 9 63 C6.04142591 63.05379226 3.08382279 63.09357093 0.125 63.125 C-1.13763672 63.15013672 -1.13763672 63.15013672 -2.42578125 63.17578125 C-3.23144531 63.18222656 -4.03710938 63.18867188 -4.8671875 63.1953125 C-5.61081543 63.20578613 -6.35444336 63.21625977 -7.12060547 63.22705078 C-9 63 -9 63 -11 61 C-12.093125 61.680625 -13.18625 62.36125 -14.3125 63.0625 C-19.60641529 65.70475612 -24.3374583 65.35276647 -30 64 C-35.36399583 61.26923849 -38.75990839 57.72820153 -41.25 52.25 C-42.85797872 45.28209222 -42.82110515 38.24579313 -39 32 C-34.90498608 27.40779896 -31.01710596 24.5281539 -25 23 C-21.3515625 22.8046875 -21.3515625 22.8046875 -17.625 22.875 C-16.37976563 22.89304687 -15.13453125 22.91109375 -13.8515625 22.9296875 C-12.91054688 22.95289062 -11.96953125 22.97609375 -11 23 C-11.66 19.37 -12.32 15.74 -13 12 C-16.97754128 11.26665571 -16.97754128 11.26665571 -21 11 C-21.66 13.31 -22.32 15.62 -23 18 C-28.61 18 -34.22 18 -40 18 C-41.21443485 13.1422606 -40.31780778 10.26922671 -38 6 C-29.279869 -5.59616366 -12.14834371 -8.3746029 0 0 Z M-22 37 C-24.16429276 39.75455442 -23.99625053 41.05436738 -23.75 44.625 C-23.30518815 48.05272884 -23.30518815 48.05272884 -21 50 C-17.80166132 50.34764551 -15.71419356 50.36093653 -12.8203125 48.8984375 C-10.68955653 47.05473204 -10.68955653 47.05473204 -10.609375 43.86328125 C-10.65578125 42.69152344 -10.7021875 41.51976562 -10.75 40.3125 C-10.78609375 39.13300781 -10.8221875 37.95351562 -10.859375 36.73828125 C-10.90578125 35.83464844 -10.9521875 34.93101562 -11 34 C-15.68280024 33.87064088 -18.22453732 34.06352903 -22 37 Z " fill="#E0E0E0" transform="translate(373,94)"/>
<path d="M0 0 C1.79296875 1.38671875 1.79296875 1.38671875 2.79296875 4.38671875 C3.45296875 4.38671875 4.11296875 4.38671875 4.79296875 4.38671875 C5.44786248 5.75742656 6.09141838 7.13355319 6.73046875 8.51171875 C7.26994141 9.66027344 7.26994141 9.66027344 7.8203125 10.83203125 C9.98272832 16.51162943 9.94860294 22.21023369 9.91796875 28.19921875 C9.92376953 29.36227539 9.92376953 29.36227539 9.9296875 30.54882812 C9.91969421 36.25999329 9.91969421 36.25999329 8.79296875 37.38671875 C6.51287825 37.46236873 4.23047121 37.46978087 1.94921875 37.44921875 C1.26492798 37.44543213 0.58063721 37.44164551 -0.12438965 37.43774414 C-3.06363044 37.42132286 -6.00273469 37.3931816 -8.94189453 37.36621094 C-11.08235033 37.34821197 -13.22278402 37.3360635 -15.36328125 37.32421875 C-16.65041016 37.31261719 -17.93753906 37.30101562 -19.26367188 37.2890625 C-22.09553478 37.0474656 -22.09553478 37.0474656 -23.20703125 38.38671875 C-22.95507217 39.91874581 -22.63106348 41.43929003 -22.26953125 42.94921875 C-22.07488281 43.77550781 -21.88023437 44.60179687 -21.6796875 45.453125 C-21.52371094 46.09121094 -21.36773438 46.72929687 -21.20703125 47.38671875 C-14.78904505 49.31805719 -10.57143475 49.61425997 -4.20703125 47.38671875 C-3.27890625 46.82984375 -2.35078125 46.27296875 -1.39453125 45.69921875 C-0.67265625 45.26609375 0.04921875 44.83296875 0.79296875 44.38671875 C4.22407039 45.5304193 4.70793439 46.25175184 6.60546875 49.19921875 C7.06566406 49.88628906 7.52585937 50.57335937 8 51.28125 C8.79296875 53.38671875 8.79296875 53.38671875 8.08203125 55.48828125 C4.08044798 61.38152207 -0.75222317 63.29474316 -7.4765625 64.8828125 C-16.4105583 66.53157567 -24.91318631 64.88079081 -32.51953125 59.82421875 C-38.14083372 55.27255683 -41.22596366 48.4722069 -42.20703125 41.38671875 C-43.77867283 14.62506841 -43.77867283 14.62506841 -35.20703125 4.38671875 C-25.48497843 -5.45389569 -12.12291328 -6.58553038 0 0 Z M-20.95703125 13.44921875 C-23.71700613 17.05251929 -23.71886216 18.95085091 -23.20703125 23.38671875 C-22.09962547 24.71882094 -22.09962547 24.71882094 -19.30078125 24.51953125 C-18.11484375 24.51695313 -16.92890625 24.514375 -15.70703125 24.51171875 C-14.52109375 24.51429687 -13.33515625 24.516875 -12.11328125 24.51953125 C-9.31443703 24.71882094 -9.31443703 24.71882094 -8.20703125 23.38671875 C-8.1208286 20.29573796 -8.41512332 17.37657523 -9.20703125 14.38671875 C-13.13070539 10.8872256 -16.58442543 10.16976439 -20.95703125 13.44921875 Z " fill="#E0E0E0" transform="translate(737.20703125,93.61328125)"/>
<path d="M0 0 C7.51798226 7.7268151 8.40895459 18.13349549 8.375 28.4375 C8.34323213 30.72932526 8.30499325 33.0211144 8.25 35.3125 C4.38792926 36.22066798 0.81851344 36.42893845 -3.14453125 36.41015625 C-4.34658203 36.40693359 -5.54863281 36.40371094 -6.78710938 36.40039062 C-8.03298828 36.39201172 -9.27886719 36.38363281 -10.5625 36.375 C-11.82771484 36.37048828 -13.09292969 36.36597656 -14.39648438 36.36132812 C-17.5143711 36.34956251 -20.63216133 36.33312272 -23.75 36.3125 C-24.68650598 39.33813471 -24.76758261 40.25389131 -23.8125 43.4375 C-21.5002286 46.6606662 -19.82948427 47.49034265 -15.94140625 48.19921875 C-10.41933167 48.48467359 -6.02303301 46.7942306 -1.75 43.3125 C-0.76 43.3125 0.23 43.3125 1.25 43.3125 C3.23 46.9425 5.21 50.5725 7.25 54.3125 C-1.02329257 61.91042175 -8.59961353 64.72661758 -19.90625 64.58984375 C-27.30194281 63.86856052 -33.88258676 59.84997273 -38.75 54.3125 C-43.64979739 46.59792539 -43.95668157 39.64358573 -44 30.6875 C-44.020625 29.64464844 -44.04125 28.60179687 -44.0625 27.52734375 C-44.11060674 17.8939696 -42.61818162 9.62406692 -36.4296875 2.00390625 C-26.74219318 -7.75117524 -11.0134781 -6.75827065 0 0 Z M-25.0625 16.25 C-25.94723474 18.90420422 -25.36548738 20.62472418 -24.75 23.3125 C-22.43756208 23.33935412 -20.1250373 23.35882841 -17.8125 23.375 C-15.88083984 23.39240234 -15.88083984 23.39240234 -13.91015625 23.41015625 C-10.88701597 23.67782549 -10.88701597 23.67782549 -9.75 22.3125 C-9.99099744 16.68234187 -9.99099744 16.68234187 -12.5 11.8125 C-18.32605945 7.92846037 -21.62656553 11.17790626 -25.0625 16.25 Z " fill="#E1E1E1" transform="translate(679.75,94.6875)"/>
<path d="M0 0 C7.25819795 5.04788252 9.76747898 11.73523651 11.46875 20.13671875 C11.94884141 23.69375965 11.99478704 27.10726125 11.9609375 30.6953125 C11.95191406 31.94054687 11.94289063 33.18578125 11.93359375 34.46875 C11.92199219 35.40976563 11.91039062 36.35078125 11.8984375 37.3203125 C8.29207517 38.44827648 4.92699746 38.43447285 1.1640625 38.41796875 C-0.13144531 38.41474609 -1.42695312 38.41152344 -2.76171875 38.40820312 C-4.12500067 38.39984848 -5.48828192 38.39138354 -6.8515625 38.3828125 C-8.23046715 38.37779418 -9.60937354 38.37323185 -10.98828125 38.36914062 C-14.35941909 38.35735343 -17.73046878 38.34089885 -21.1015625 38.3203125 C-20.62867972 43.3192698 -20.62867972 43.3192698 -18.4140625 47.6953125 C-15.40090981 49.81266304 -13.81244062 50.25159253 -10.1015625 50.3203125 C-5.16921216 49.22770325 -0.57184717 47.67905717 3.8984375 45.3203125 C4.93456021 46.72583549 5.95188675 48.14522944 6.9609375 49.5703125 C7.52941406 50.35921875 8.09789062 51.148125 8.68359375 51.9609375 C9.8984375 54.3203125 9.8984375 54.3203125 9.8359375 56.421875 C7.65084377 60.84668981 2.24434442 63.39245379 -2.1953125 65.1484375 C-10.9265935 67.57379333 -20.28003366 66.87288659 -28.2890625 62.6328125 C-34.17827115 57.79057427 -38.26530158 52.89874727 -40.1015625 45.3203125 C-40.52053894 40.99986482 -40.52100097 36.72050047 -40.4765625 32.3828125 C-40.48816406 31.25423828 -40.49976563 30.12566406 -40.51171875 28.96289062 C-40.47887374 19.55279419 -39.05089359 11.84446653 -33.1015625 4.3203125 C-24.24369406 -4.05875224 -10.89036233 -5.78930042 0 0 Z M-19.4140625 13.7578125 C-21.90603154 17.54191364 -21.83690286 20.82109858 -22.1015625 25.3203125 C-17.1515625 25.3203125 -12.2015625 25.3203125 -7.1015625 25.3203125 C-5.99117622 19.7683811 -6.57215619 18.19176169 -9.1015625 13.3203125 C-12.75863768 11.49177491 -15.95281793 11.60622804 -19.4140625 13.7578125 Z " fill="#E1E1E1" transform="translate(856.1015625,92.6796875)"/>
<path d="M0 0 C1.14662109 0.00386719 2.29324219 0.00773437 3.47460938 0.01171875 C5.26415039 0.04845703 5.26415039 0.04845703 7.08984375 0.0859375 C8.28673828 0.08722656 9.48363281 0.08851562 10.71679688 0.08984375 C19.60576339 0.17988393 19.60576339 0.17988393 23.02734375 2.4609375 C24.03417113 5.48141963 24.15976574 7.52062057 24.17260742 10.67919922 C24.17898727 11.74395477 24.18536713 12.80871033 24.19194031 13.9057312 C24.19305313 15.05574615 24.19416595 16.20576111 24.1953125 17.390625 C24.2003051 19.16434982 24.2003051 19.16434982 24.20539856 20.97390747 C24.21046493 23.47722993 24.21280697 25.98055914 24.21264648 28.48388672 C24.214831 32.31358989 24.2329847 36.14300415 24.25195312 39.97265625 C24.25488748 42.40364485 24.25687199 44.83463481 24.2578125 47.265625 C24.26499802 48.41159149 24.27218353 49.55755798 24.27958679 50.73825073 C24.27651016 51.80931061 24.27343353 52.88037048 24.27026367 53.98388672 C24.27168869 54.92303925 24.27311371 55.86219177 24.27458191 56.82980347 C24.00231718 59.72727279 23.32634758 61.86228688 22.02734375 64.4609375 C17.69861099 66.62530388 11.90694893 65.69059694 7.15234375 65.7109375 C5.95480469 65.7315625 4.75726563 65.7521875 3.5234375 65.7734375 C1.79673828 65.78117187 1.79673828 65.78117187 0.03515625 65.7890625 C-1.0204248 65.7984082 -2.07600586 65.80775391 -3.16357422 65.81738281 C-6.45211126 65.4000993 -7.62461328 64.77233753 -9.97265625 62.4609375 C-10.48059082 59.92518616 -10.48059082 59.92518616 -10.49023438 56.85961914 C-10.50284302 55.71155289 -10.51545166 54.56348663 -10.52844238 53.38063049 C-10.52034546 52.13998337 -10.51224854 50.89933624 -10.50390625 49.62109375 C-10.50773315 48.34745468 -10.51156006 47.07381561 -10.51550293 45.76158142 C-10.51822781 43.0651944 -10.51283505 40.37025307 -10.49414062 37.67407227 C-10.47137242 34.22255413 -10.48445756 30.77228159 -10.50843048 27.32080936 C-10.52638573 24.02502655 -10.51380171 20.72939284 -10.50390625 17.43359375 C-10.51200317 16.19497086 -10.5201001 14.95634796 -10.52844238 13.68019104 C-10.51583374 12.52897263 -10.5032251 11.37775421 -10.49023438 10.19165039 C-10.487052 9.17921768 -10.48386963 8.16678497 -10.48059082 7.12367249 C-9.3443879 1.16737922 -5.5428461 -0.04341322 0 0 Z " fill="#EF707F" transform="translate(16.97265625,113.5390625)"/>
<path d="M0 0 C4.22660068 3.78467729 6.5277056 8.83872424 7.0546875 14.45703125 C7.06143029 16.5978662 6.94815355 18.73845656 6.8125 20.875 C1.2025 20.875 -4.4075 20.875 -10.1875 20.875 C-10.8475 17.575 -11.5075 14.275 -12.1875 10.875 C-17.11040686 10.47760754 -17.11040686 10.47760754 -21.5625 12.3125 C-23.92295783 16.03476042 -24.04792614 19.58462078 -24.1875 23.875 C-24.22746094 25.00292969 -24.26742187 26.13085938 -24.30859375 27.29296875 C-24.57194516 36.80580499 -24.57194516 36.80580499 -22.1875 45.875 C-19.46131625 47.7837987 -19.46131625 47.7837987 -16.1875 47.875 C-13.27671756 47.04520292 -13.27671756 47.04520292 -11.1875 44.875 C-10.8575 42.895 -10.5275 40.915 -10.1875 38.875 C-4.2475 38.875 1.6925 38.875 7.8125 38.875 C6.41719833 48.40956141 4.34782856 54.43286516 -3.27734375 60.6171875 C-6.45105879 62.70703667 -9.44439845 63.43503327 -13.1875 63.875 C-13.97253906 63.96910156 -14.75757813 64.06320313 -15.56640625 64.16015625 C-23.17068089 64.62426691 -29.28798056 62.25732002 -35.04296875 57.265625 C-43.33274892 48.34131844 -43.59309405 36.64949987 -43.3984375 25.0234375 C-43.04406601 15.56915624 -41.28155466 6.57310742 -34.1875 -0.125 C-23.72652794 -7.86883646 -10.43875994 -6.95917329 0 0 Z " fill="#E0E0E0" transform="translate(581.1875,95.125)"/>
<path d="M0 0 C1.94140625 0.3828125 1.94140625 0.3828125 4.44140625 2.0078125 C6.42338939 5.14595248 6.61204683 6.73154715 5.94140625 10.3828125 C3.81640625 13.2578125 3.81640625 13.2578125 0.94140625 15.3828125 C0.04164063 15.30289062 -0.858125 15.22296875 -1.78515625 15.140625 C-6.63507967 15.49944988 -8.86397684 18.14408278 -12.30859375 21.3828125 C-13.6290154 22.57554073 -14.95063297 23.76694632 -16.2734375 24.95703125 C-17.23612549 25.83367432 -17.23612549 25.83367432 -18.21826172 26.72802734 C-20.70841663 28.96711861 -23.26600687 31.09076633 -25.87109375 33.1953125 C-26.64066406 33.82050781 -27.41023438 34.44570313 -28.203125 35.08984375 C-30.05859375 36.3828125 -30.05859375 36.3828125 -32.05859375 36.3828125 C-32.38859375 37.3728125 -32.71859375 38.3628125 -33.05859375 39.3828125 C-34.765625 40.671875 -34.765625 40.671875 -36.87109375 42.0078125 C-40.27292956 44.40839876 -41.69066811 46.23051097 -43.12109375 50.1328125 C-44.54751555 53.89222639 -44.67798069 54.19930263 -48.55859375 56.0703125 C-53.48774083 56.51041492 -53.48774083 56.51041492 -56.05859375 54.3828125 C-56.51105469 53.48046875 -56.96351562 52.578125 -57.4296875 51.6484375 C-60.70939678 46.63640767 -66.63590196 44.90685143 -71.93359375 42.6328125 C-73.54814453 41.91158203 -73.54814453 41.91158203 -75.1953125 41.17578125 C-82.49029404 37.91160087 -82.49029404 37.91160087 -90.05859375 35.3828125 C-91.42410781 36.33840087 -92.75617075 37.34287398 -94.05859375 38.3828125 C-97.125 38.5078125 -97.125 38.5078125 -100.62109375 38.3828125 C-106.65981294 38.67126638 -109.88108382 40.12781245 -113.93359375 44.5078125 C-115.66910484 46.44402896 -117.36193541 48.41197417 -119.05859375 50.3828125 C-120.34270276 51.58065699 -121.65271624 52.7518376 -122.99609375 53.8828125 C-123.61613281 54.4190625 -124.23617187 54.9553125 -124.875 55.5078125 C-126.09201578 56.55283499 -127.31051995 57.59615391 -128.53466797 58.6328125 C-130.18056597 60.03518732 -131.80747841 61.4575745 -133.43359375 62.8828125 C-133.95816162 63.32173828 -134.48272949 63.76066406 -135.02319336 64.21289062 C-138.84302766 67.59832706 -139.87969817 70.5046239 -141.05859375 75.3828125 C-143.71385473 77.67925443 -145.10869896 78.40598067 -148.62109375 78.3203125 C-151.68000752 77.1438072 -153.12218833 76.03640512 -155.05859375 73.3828125 C-155.62109375 70.4453125 -155.62109375 70.4453125 -155.05859375 67.3828125 C-152.93359375 64.5078125 -152.93359375 64.5078125 -150.05859375 62.3828125 C-149.18203125 62.49496094 -148.30546875 62.60710937 -147.40234375 62.72265625 C-142.04817617 62.17848268 -139.35652686 58.52919068 -135.68359375 54.8203125 C-134.23960476 53.40099598 -132.79429821 51.98301863 -131.34765625 50.56640625 C-130.63988037 49.86870117 -129.93210449 49.17099609 -129.20288086 48.45214844 C-124.96376101 44.36120231 -120.71017891 40.44231996 -115.74609375 37.2578125 C-112.08579969 33.34214908 -111.8260997 29.59073802 -110.828125 24.42578125 C-109.83363704 20.49326287 -108.3831983 18.67837278 -105.05859375 16.3828125 C-102.09434791 14.71067382 -100.46722905 14.36578603 -97.05859375 14.5078125 C-92.30247138 15.89501486 -89.77317935 18.31093411 -87.05859375 22.3828125 C-86.93085571 23.86128662 -86.93085571 23.86128662 -86.80053711 25.36962891 C-86.35793438 28.58475402 -86.35793438 28.58475402 -83.53344727 30.16552734 C-82.42928467 30.63684082 -81.32512207 31.1081543 -80.1875 31.59375 C-79.59114243 31.85161285 -78.99478485 32.10947571 -78.38035583 32.37515259 C-77.11490996 32.9156456 -75.84443335 33.44448818 -74.56958008 33.96240234 C-72.64569622 34.74776929 -70.74454752 35.57509172 -68.84179688 36.41015625 C-62.47302454 39.1243873 -56.92422443 41.04680564 -49.92944336 40.48291016 C-48.05859375 40.3828125 -48.05859375 40.3828125 -46.05859375 41.3828125 C-45.72859375 40.3928125 -45.39859375 39.4028125 -45.05859375 38.3828125 C-43.265625 36.76171875 -43.265625 36.76171875 -40.87109375 34.9453125 C-36.48821447 31.54058654 -32.25283795 28.0139485 -28.05859375 24.3828125 C-11.80871192 10.3828125 -11.80871192 10.3828125 -9.05859375 10.3828125 C-9.12046875 9.4753125 -9.18234375 8.5678125 -9.24609375 7.6328125 C-9.05859375 4.3828125 -9.05859375 4.3828125 -8.05859375 2.0078125 C-5.46529815 -0.09924018 -3.28498062 -0.18149064 0 0 Z " fill="#98E3F7" transform="translate(171.05859375,9.6171875)"/>
<path d="M0 0 C5.94 0 11.88 0 18 0 C18.495 7.92 18.495 7.92 19 16 C21.64 16 24.28 16 27 16 C27 20.62 27 25.24 27 30 C23.04 30.495 23.04 30.495 19 31 C18.97527961 35.64477144 18.95713032 40.28950457 18.94506836 44.93432617 C18.94003986 46.51441108 18.93321622 48.09449134 18.92456055 49.67456055 C18.91243008 51.94581246 18.90675687 54.21700285 18.90234375 56.48828125 C18.89718246 57.19463211 18.89202118 57.90098297 18.88670349 58.6287384 C18.88635197 61.70254391 19.0196814 64.0590442 20 67 C21.7015625 67.2165625 21.7015625 67.2165625 23.4375 67.4375 C27 68 27 68 28 69 C28.07258946 71.18639453 28.08373783 73.37500389 28.0625 75.5625 C28.05347656 76.76003906 28.04445313 77.95757812 28.03515625 79.19140625 C28.02355469 80.11824219 28.01195312 81.04507813 28 82 C20.76853976 84.57095824 14.84514657 84.97044443 7.7578125 81.96875 C3.60254756 79.67873732 2.2465402 76.81642268 0.91064453 72.39257812 C-0.16297216 67.8659641 -0.2558636 63.53979732 -0.1953125 58.90625 C-0.1924826 58.07411987 -0.18965271 57.24198975 -0.18673706 56.38464355 C-0.17564286 53.75627569 -0.15055925 51.1282629 -0.125 48.5 C-0.11495626 46.70573413 -0.10583286 44.91146285 -0.09765625 43.1171875 C-0.07573893 38.74465721 -0.0412849 34.37238857 0 30 C-2.31 30 -4.62 30 -7 30 C-7 25.38 -7 20.76 -7 16 C-4.69 16 -2.38 16 0 16 C0 10.72 0 5.44 0 0 Z " fill="#E0E0E0" transform="translate(438,75)"/>
<path d="M0 0 C1 1 1 1 1.09765625 4.81640625 C1.09098089 6.39846682 1.07901875 7.98051159 1.0625 9.5625 C1.05798828 10.36880859 1.05347656 11.17511719 1.04882812 12.00585938 C1.03700518 14.00393756 1.01906914 16.00197783 1 18 C0.32453125 18.03738281 -0.3509375 18.07476562 -1.046875 18.11328125 C-1.93890625 18.17902344 -2.8309375 18.24476562 -3.75 18.3125 C-4.63171875 18.37050781 -5.5134375 18.42851563 -6.421875 18.48828125 C-9.50474741 19.10018471 -10.86988939 19.67318999 -13 22 C-14.05423545 27.34937957 -14.1328674 32.57196177 -14.09765625 37.99609375 C-14.09553383 39.24641136 -14.09553383 39.24641136 -14.09336853 40.52198792 C-14.08781168 43.16052986 -14.0752674 45.79898409 -14.0625 48.4375 C-14.05747942 50.23632689 -14.05291749 52.03515513 -14.04882812 53.83398438 C-14.03871118 58.22271649 -14.01912768 62.61126111 -14 67 C-20.27 67 -26.54 67 -33 67 C-33 45.22 -33 23.44 -33 1 C-27.39 1 -21.78 1 -16 1 C-15.34 1.99 -14.68 2.98 -14 4 C-13.566875 3.525625 -13.13375 3.05125 -12.6875 2.5625 C-9.00889754 -0.84361339 -4.69201339 -0.15135527 0 0 Z " fill="#E0E0E0" transform="translate(630,90)"/>
<path d="M0 0 C1 1 1 1 1.09765625 4.81640625 C1.09098089 6.39846682 1.07901875 7.98051159 1.0625 9.5625 C1.05798828 10.36880859 1.05347656 11.17511719 1.04882812 12.00585938 C1.03700518 14.00393756 1.01906914 16.00197783 1 18 C0.33613281 18.01417969 -0.32773437 18.02835938 -1.01171875 18.04296875 C-1.89472656 18.09066406 -2.77773438 18.13835937 -3.6875 18.1875 C-4.55761719 18.22230469 -5.42773438 18.25710937 -6.32421875 18.29296875 C-10.19381857 19.31544695 -11.55050322 20.83195733 -14 24 C-14.74120955 27.29571622 -14.72150973 30.52671778 -14.70703125 33.89453125 C-14.72215256 34.84188644 -14.73727386 35.78924164 -14.75285339 36.76530457 C-14.79572747 39.78127856 -14.8045682 42.79625163 -14.8125 45.8125 C-14.8356445 47.86135473 -14.86100974 49.91018566 -14.88867188 51.95898438 C-14.95152159 56.97274472 -14.98385911 61.9858805 -15 67 C-17.6246601 67.19430855 -20.24946765 67.38073238 -22.875 67.5625 C-23.99455078 67.64661133 -23.99455078 67.64661133 -25.13671875 67.73242188 C-30.7734375 68.11328125 -30.7734375 68.11328125 -33 67 C-33 45.22 -33 23.44 -33 1 C-27.39 1 -21.78 1 -16 1 C-15.34 1.99 -14.68 2.98 -14 4 C-13.175 3.34 -12.35 2.68 -11.5 2 C-7.6308733 -0.6132765 -4.57275279 -0.38752142 0 0 Z " fill="#E0E0E0" transform="translate(909,90)"/>
<path d="M0 0 C1 1 1 1 1.09765625 4.81640625 C1.09098089 6.39846682 1.07901875 7.98051159 1.0625 9.5625 C1.05798828 10.36880859 1.05347656 11.17511719 1.04882812 12.00585938 C1.03700518 14.00393756 1.01906914 16.00197783 1 18 C0.33613281 18.01417969 -0.32773437 18.02835938 -1.01171875 18.04296875 C-1.89472656 18.09066406 -2.77773438 18.13835937 -3.6875 18.1875 C-4.55761719 18.22230469 -5.42773438 18.25710937 -6.32421875 18.29296875 C-10.19381857 19.31544695 -11.55050322 20.83195733 -14 24 C-14.74120955 27.29571622 -14.72150973 30.52671778 -14.70703125 33.89453125 C-14.72215256 34.84188644 -14.73727386 35.78924164 -14.75285339 36.76530457 C-14.79572747 39.78127856 -14.8045682 42.79625163 -14.8125 45.8125 C-14.8356445 47.86135473 -14.86100974 49.91018566 -14.88867188 51.95898438 C-14.95152159 56.97274472 -14.98385911 61.9858805 -15 67 C-20.94 67 -26.88 67 -33 67 C-33 45.22 -33 23.44 -33 1 C-27.39 1 -21.78 1 -16 1 C-15.34 1.99 -14.68 2.98 -14 4 C-13.175 3.34 -12.35 2.68 -11.5 2 C-7.6308733 -0.6132765 -4.57275279 -0.38752142 0 0 Z " fill="#E0E0E0" transform="translate(424,90)"/>
<path d="M0 0 C0.25447559 2.11180019 0.25447559 2.11180019 0.26069641 4.77598572 C0.26778122 5.78409805 0.27486603 6.79221039 0.28216553 7.83087158 C0.27968811 8.94105652 0.27721069 10.05124146 0.2746582 11.19506836 C0.27976913 12.36097 0.28488007 13.52687164 0.29014587 14.72810364 C0.30409518 18.59873527 0.30308108 22.46918991 0.30078125 26.33984375 C0.30368428 28.34326972 0.30659144 30.34669576 0.310188 32.3501206 C0.3212921 38.65197033 0.32171562 44.95376045 0.31567383 51.25561523 C0.30963302 57.76084403 0.32194552 64.26585659 0.3432439 70.77104849 C0.36084697 76.3524199 0.36686329 81.93372241 0.36360615 87.51512057 C0.36179096 90.85029263 0.36575927 94.1852757 0.37832069 97.52042961 C0.3906063 101.23897001 0.38394043 104.95700528 0.37231445 108.67553711 C0.38378006 110.33777817 0.38378006 110.33777817 0.39547729 112.03359985 C0.38846298 113.04453201 0.38144867 114.05546417 0.3742218 115.09703064 C0.37438954 115.97658889 0.37455729 116.85614714 0.37473011 117.76235867 C-0.08162979 120.48743932 -0.79653163 121.37448078 -3 123 C-5.78735352 123.38818359 -5.78735352 123.38818359 -9.12890625 123.3984375 C-10.92811523 123.40423828 -10.92811523 123.40423828 -12.76367188 123.41015625 C-14.01728516 123.39855469 -15.27089844 123.38695312 -16.5625 123.375 C-18.4487207 123.39240234 -18.4487207 123.39240234 -20.37304688 123.41015625 C-22.17032227 123.40435547 -22.17032227 123.40435547 -24.00390625 123.3984375 C-25.10549072 123.39505371 -26.2070752 123.39166992 -27.34204102 123.38818359 C-28.65773071 123.19603271 -28.65773071 123.19603271 -30 123 C-30.66 122.01 -31.32 121.02 -32 120 C-29.03 120.66 -26.06 121.32 -23 122 C-23 115.4 -23 108.8 -23 102 C-21.02 101.505 -21.02 101.505 -19 101 C-18 102 -18 102 -17.88647461 103.85766602 C-17.89171143 104.64842529 -17.89694824 105.43918457 -17.90234375 106.25390625 C-17.90556641 107.10791016 -17.90878906 107.96191406 -17.91210938 108.84179688 C-17.92048828 109.73962891 -17.92886719 110.63746094 -17.9375 111.5625 C-17.94201172 112.46419922 -17.94652344 113.36589844 -17.95117188 114.29492188 C-17.96299775 116.53001314 -17.9794778 118.76497437 -18 121 C-15.36 120.67 -12.72 120.34 -10 120 C-10.10710523 104.37116628 -10.21984222 88.7423841 -10.33933926 73.11364079 C-10.39468781 65.85743403 -10.44817243 58.60122236 -10.49731445 51.3449707 C-10.54013636 45.02263061 -10.58640922 38.70032696 -10.63687855 32.37804312 C-10.66349563 29.02845393 -10.68834901 25.67887205 -10.70907402 22.3292408 C-10.73303965 18.59582571 -10.76310458 14.86250777 -10.79467773 11.12915039 C-10.80331093 9.45141037 -10.80331093 9.45141037 -10.81211853 7.73977661 C-10.82190735 6.72870346 -10.83169617 5.71763031 -10.84178162 4.67591858 C-10.84823417 3.79191911 -10.85468672 2.90791964 -10.8613348 1.9971323 C-10.78039507 0.00079477 -10.78039507 0.00079477 -12 -1 C-13.34015221 -1.15582303 -14.68758903 -1.25044142 -16.03515625 -1.31640625 C-16.84404297 -1.35830078 -17.65292969 -1.40019531 -18.48632812 -1.44335938 C-19.33646484 -1.48267578 -20.18660156 -1.52199219 -21.0625 -1.5625 C-21.91650391 -1.60568359 -22.77050781 -1.64886719 -23.65039062 -1.69335938 C-25.76672037 -1.79976702 -27.88333813 -1.90041731 -30 -2 C-30 -2.33 -30 -2.66 -30 -3 C-26.45928579 -3.22730289 -22.91754334 -3.42844022 -19.375 -3.625 C-18.37597656 -3.68945312 -17.37695312 -3.75390625 -16.34765625 -3.8203125 C-4.4506191 -4.4506191 -4.4506191 -4.4506191 0 0 Z " fill="#47A920" transform="translate(186,56)"/>
<path d="M0 0 C8.81415929 -0.29380531 8.81415929 -0.29380531 12 2 C13.66375309 5.32750618 13.14719678 9.05788592 13.14526367 12.71655273 C13.14862228 13.61910797 13.1519809 14.52166321 13.15544128 15.4515686 C13.16496764 18.44559085 13.16689521 21.43955728 13.16796875 24.43359375 C13.17118004 26.50863163 13.17454401 28.58366927 13.17805481 30.65870667 C13.18405021 35.01246669 13.18589428 39.36620684 13.18530273 43.7199707 C13.18520106 49.30674861 13.19885687 54.89339957 13.21607494 60.48014736 C13.22717725 64.76687712 13.22922249 69.05357601 13.22869301 73.34031868 C13.22987566 75.40045675 13.23431332 77.46059555 13.24202538 79.52071953 C13.25179007 82.3985885 13.24896123 85.27617957 13.24291992 88.15405273 C13.24853943 89.0097435 13.25415894 89.86543427 13.25994873 90.74705505 C13.22831696 96.65752455 13.22831696 96.65752455 11 100 C8.6171875 100.29296875 8.6171875 100.29296875 5.875 100.1875 C4.50988281 100.14689453 4.50988281 100.14689453 3.1171875 100.10546875 C2.41851562 100.07066406 1.71984375 100.03585938 1 100 C1 99.34 1 98.68 1 98 C1.66 98 2.32 98 3 98 C3 66.32 3 34.64 3 2 C2.01 2 1.02 2 0 2 C0 1.34 0 0.68 0 0 Z " fill="#65DAF8" transform="translate(76,78)"/>
<path d="M0 0 C7.20268496 -0.48831762 7.20268496 -0.48831762 10.60044861 1.59265137 C13.77914823 4.78168004 13.62765202 6.45689746 13.63110352 10.90820312 C13.63825882 11.59486557 13.64541412 12.28152802 13.65278625 12.98899841 C13.66966473 15.25376371 13.65027924 17.51654685 13.62890625 19.78125 C13.62973505 21.35778975 13.63219483 22.93432942 13.63621521 24.51086426 C13.63907259 27.81300912 13.624379 31.11447547 13.59692383 34.41650391 C13.5628402 38.64704488 13.56885928 42.87637269 13.5875864 47.10697174 C13.59816036 50.36185804 13.58921517 53.61646253 13.57420158 56.87132263 C13.56902215 58.43101667 13.5694987 59.99074017 13.57574654 61.5504303 C13.58120393 63.73152834 13.56081108 65.91089609 13.53344727 68.09179688 C13.52724869 69.33215698 13.52105011 70.57251709 13.5146637 71.85046387 C12.90749717 75.56608035 11.9664455 76.75508986 9 79 C6.70996094 79.45410156 6.70996094 79.45410156 4.234375 79.390625 C3.43225586 79.38063477 2.63013672 79.37064453 1.80371094 79.36035156 C0.79598633 79.32393555 -0.21173828 79.28751953 -1.25 79.25 C-4.4675 79.1675 -7.685 79.085 -11 79 C-11 72.07 -11 65.14 -11 58 C-8.525 57.505 -8.525 57.505 -6 57 C-4.8517315 59.296537 -4.88438825 60.58313167 -4.90234375 63.1328125 C-4.90717773 64.34130859 -4.90717773 64.34130859 -4.91210938 65.57421875 C-4.92048828 66.41597656 -4.92886719 67.25773437 -4.9375 68.125 C-4.94201172 68.97449219 -4.94652344 69.82398438 -4.95117188 70.69921875 C-4.96297126 72.79950909 -4.98090694 74.8997633 -5 77 C-2.02934491 76.65772428 -2.02934491 76.65772428 1 76 C2.44037196 73.11925608 2.13526341 70.62977616 2.14526367 67.41064453 C2.14862228 66.73402771 2.1519809 66.05741089 2.15544128 65.36029053 C2.16495999 63.1177793 2.16689493 60.87534269 2.16796875 58.6328125 C2.17118099 57.07583587 2.17454504 55.51885954 2.17805481 53.96188354 C2.18404859 50.69512228 2.18589449 47.42838747 2.18530273 44.16162109 C2.18520117 39.97617776 2.19884672 35.79090427 2.21607494 31.60550117 C2.22719609 28.38845033 2.2292219 25.17144051 2.22869301 21.95437241 C2.22987321 20.41141042 2.23429723 18.86844738 2.24202538 17.3255043 C2.25182648 15.16626365 2.24894678 13.00739115 2.24291992 10.84814453 C2.24434494 9.61951691 2.24576996 8.39088928 2.24723816 7.12503052 C2.01256284 4.15879123 1.56084804 2.49146569 0 0 Z " fill="#A0E132" transform="translate(125,100)"/>
<path d="M0 0 C1.94140625 0.3828125 1.94140625 0.3828125 4.44140625 2.0078125 C6.42338939 5.14595248 6.61204683 6.73154715 5.94140625 10.3828125 C3.81640625 13.2578125 3.81640625 13.2578125 0.94140625 15.3828125 C0.04164063 15.30289062 -0.858125 15.22296875 -1.78515625 15.140625 C-6.63507967 15.49944988 -8.86397684 18.14408278 -12.30859375 21.3828125 C-13.6290154 22.57554073 -14.95063297 23.76694632 -16.2734375 24.95703125 C-16.91522949 25.54145996 -17.55702148 26.12588867 -18.21826172 26.72802734 C-20.70841663 28.96711861 -23.26600687 31.09076633 -25.87109375 33.1953125 C-26.64066406 33.82050781 -27.41023438 34.44570313 -28.203125 35.08984375 C-30.05859375 36.3828125 -30.05859375 36.3828125 -32.05859375 36.3828125 C-32.38859375 37.3728125 -32.71859375 38.3628125 -33.05859375 39.3828125 C-34.765625 40.671875 -34.765625 40.671875 -36.87109375 42.0078125 C-40.27292956 44.40839876 -41.69066811 46.23051097 -43.12109375 50.1328125 C-44.54751555 53.89222639 -44.67798069 54.19930263 -48.55859375 56.0703125 C-52.05859375 56.3828125 -52.05859375 56.3828125 -54.43359375 55.8828125 C-56.05859375 54.3828125 -56.05859375 54.3828125 -56.99609375 51.6953125 C-57.07616602 47.45148219 -56.26108837 45.0062714 -54.05859375 41.3828125 C-50.84585463 40.33375483 -49.12118915 39.8515148 -46.05859375 41.3828125 C-45.72859375 40.3928125 -45.39859375 39.4028125 -45.05859375 38.3828125 C-43.265625 36.76171875 -43.265625 36.76171875 -40.87109375 34.9453125 C-36.48821447 31.54058654 -32.25283795 28.0139485 -28.05859375 24.3828125 C-11.80871192 10.3828125 -11.80871192 10.3828125 -9.05859375 10.3828125 C-9.12046875 9.4753125 -9.18234375 8.5678125 -9.24609375 7.6328125 C-9.05859375 4.3828125 -9.05859375 4.3828125 -8.05859375 2.0078125 C-5.46529815 -0.09924018 -3.28498062 -0.18149064 0 0 Z " fill="#A1DB38" transform="translate(171.05859375,9.6171875)"/>
<path d="M0 0 C1.4370809 -0.05422947 2.87475462 -0.09289723 4.3125 -0.125 C5.11300781 -0.14820312 5.91351563 -0.17140625 6.73828125 -0.1953125 C9 0 9 0 12 2 C13.00682738 5.02048213 13.13242199 7.05968307 13.14526367 10.21826172 C13.15164352 11.28301727 13.15802338 12.34777283 13.16459656 13.4447937 C13.16570938 14.59480865 13.1668222 15.74482361 13.16796875 16.9296875 C13.17129715 18.11217072 13.17462555 19.29465393 13.17805481 20.51296997 C13.18312118 23.01629243 13.18546322 25.51962164 13.18530273 28.02294922 C13.18748725 31.85265239 13.20564095 35.68206665 13.22460938 39.51171875 C13.22754373 41.94270735 13.22952824 44.37369731 13.23046875 46.8046875 C13.23765427 47.95065399 13.24483978 49.09662048 13.25224304 50.27731323 C13.24916641 51.34837311 13.24608978 52.41943298 13.24291992 53.52294922 C13.24434494 54.46210175 13.24576996 55.40125427 13.24723816 56.36886597 C12.97497343 59.26633529 12.29900383 61.40134938 11 64 C8.01405576 65.49297212 5.29146376 65.11755228 2 65 C1.34 64.67 0.68 64.34 0 64 C0 63.34 0 62.68 0 62 C0.99 62 1.98 62 3 62 C3 42.53 3 23.06 3 3 C2.01 2.67 1.02 2.34 0 2 C0 1.34 0 0.68 0 0 Z " fill="#E1586A" transform="translate(28,114)"/>
<path d="M0 0 C2.475 0.495 2.475 0.495 5 1 C5.495 3.475 5.495 3.475 6 6 C5.59652344 6.34289063 5.19304687 6.68578125 4.77734375 7.0390625 C-0.78172462 11.83095583 -6.1279374 16.83671582 -11.47949219 21.85693359 C-15.44788323 25.57242717 -19.45251909 29.2286477 -23.58203125 32.765625 C-26.24250436 35.08162914 -26.96393499 35.84741727 -27.8125 39.4375 C-29 43 -29 43 -31.3125 45 C-34.50536958 46.18804449 -35.83130169 46.21873012 -39 45 C-41.96102497 42.83925205 -42.86895034 41.68437046 -43.5625 38.0625 C-42.80057749 33.91425523 -41.36344489 32.48602449 -38 30 C-37.1234375 30.11214844 -36.246875 30.22429687 -35.34375 30.33984375 C-29.98958242 29.79567018 -27.29793311 26.14637818 -23.625 22.4375 C-22.18101101 21.01818348 -20.73570446 19.60020613 -19.2890625 18.18359375 C-18.58112549 17.48500244 -17.87318848 16.78641113 -17.14379883 16.06665039 C-12.80688588 11.88580901 -8.2272365 7.99525086 -3.5625 4.1875 C-0.96768028 2.26028607 -0.96768028 2.26028607 0 0 Z " fill="#D85A6B" transform="translate(59,42)"/>
<path d="M0 0 C8.81415929 -0.29380531 8.81415929 -0.29380531 12 2 C13.66566098 5.33132197 13.14719552 9.06944534 13.14526367 12.73242188 C13.15030159 14.08866417 13.15030159 14.08866417 13.15544128 15.4723053 C13.16496667 18.47113404 13.16689508 21.46990706 13.16796875 24.46875 C13.17117982 26.54618351 13.17454377 28.62361678 13.17805481 30.7010498 C13.18404977 35.05900599 13.18589429 39.41694233 13.18530273 43.77490234 C13.185201 49.37074668 13.19886351 54.96646445 13.21607494 60.56227875 C13.22716886 64.85325714 13.22922276 69.14420466 13.22869301 73.43519592 C13.22987668 75.49895159 13.23431993 77.56270796 13.24202538 79.62644958 C13.25177439 82.50691721 13.24896766 85.38710644 13.24291992 88.26757812 C13.24853943 89.12686417 13.25415894 89.98615021 13.25994873 90.87147522 C13.2283164 96.7716836 13.2283164 96.7716836 11 99 C11 67.32 11 35.64 11 3 C9.35 2.67 7.7 2.34 6 2 C5.67 6.95 5.34 11.9 5 17 C4.67 17 4.34 17 4 17 C3.67 12.05 3.34 7.1 3 2 C2.01 2 1.02 2 0 2 C0 1.34 0 0.68 0 0 Z " fill="#71D0E6" transform="translate(76,78)"/>
<path d="M0 0 C3.13194005 2.13541367 4.88956088 3.83434133 7 7 C7.34022038 10.74242418 7.49154707 13.1286211 5.625 16.4375 C4 18 4 18 2 18 C2 18.66 2 19.32 2 20 C-1.6441774 22.4294516 -3.71241272 22.16179575 -8 22 C-7.34 21.67 -6.68 21.34 -6 21 C-3.87460598 16.15882474 -3.42336485 12.18971639 -4 7 C-6.37500791 4.12359384 -6.37500791 4.12359384 -9 2 C-9 1.34 -9 0.68 -9 0 C-5.39965901 -1.20011366 -3.65462165 -0.95020163 0 0 Z " fill="#64D9F7" transform="translate(77,25)"/>
<path d="M0 0 C3.78115092 0.92223193 5.72579141 2.98620131 8.5625 5.625 C7.22670275 13.03260296 7.22670275 13.03260296 4.25 15.6875 C1.06632254 16.79808516 -0.29827954 16.83239248 -3.4375 15.625 C-6.39852497 13.46425205 -7.30645034 12.30937046 -8 8.6875 C-7.13666773 3.98713542 -4.68773716 1.20198389 0 0 Z " fill="#EF6F80" transform="translate(23.4375,71.375)"/>
<path d="M0 0 C1.94140625 0.3828125 1.94140625 0.3828125 4.44140625 2.0078125 C6.42338939 5.14595248 6.61204683 6.73154715 5.94140625 10.3828125 C3.65125909 13.3927202 2.15005011 15.08065153 -1.55859375 16.0078125 C-5.26723761 15.08065153 -6.76844659 13.3927202 -9.05859375 10.3828125 C-9.60874278 7.0131497 -9.37673835 5.13840591 -8.05859375 2.0078125 C-5.46529815 -0.09924018 -3.28498062 -0.18149064 0 0 Z " fill="#4DBF22" transform="translate(171.05859375,9.6171875)"/>
<path d="M0 0 C1.96867466 1.19398499 1.96867466 1.19398499 4 3 C4.50057125 5.23484802 4.50057125 5.23484802 4.50120544 7.89624023 C4.51103958 8.90572723 4.52087372 9.91521423 4.53100586 10.95529175 C4.51650391 12.61517624 4.51650391 12.61517624 4.50170898 14.30859375 C4.50711197 15.47464142 4.51251495 16.64068909 4.51808167 17.84207153 C4.53061816 21.70747029 4.51404422 25.57213139 4.49609375 29.4375 C4.49624862 32.11646543 4.49768154 34.79540408 4.50050354 37.47436523 C4.50320636 43.09334983 4.48972412 48.7121209 4.46655273 54.33105469 C4.43994233 60.82894256 4.43819551 67.3264734 4.4499411 73.82439709 C4.46071742 80.07309224 4.45453303 86.32165813 4.44038582 92.57034302 C4.43585986 95.23055647 4.43554445 97.89078044 4.43945122 100.55099487 C4.44235179 104.26468659 4.42591075 107.97778888 4.40405273 111.69140625 C4.40855438 112.79799591 4.41305603 113.90458557 4.41769409 115.04470825 C4.40778946 116.05419525 4.39788483 117.06368225 4.38768005 118.10375977 C4.38525016 118.9820192 4.38282026 119.86027863 4.38031673 120.76515198 C3.91739444 123.48541351 3.20007299 124.37559741 1 126 C-1.78735352 126.38818359 -1.78735352 126.38818359 -5.12890625 126.3984375 C-6.92811523 126.40423828 -6.92811523 126.40423828 -8.76367188 126.41015625 C-10.01728516 126.39855469 -11.27089844 126.38695312 -12.5625 126.375 C-14.4487207 126.39240234 -14.4487207 126.39240234 -16.37304688 126.41015625 C-18.17032227 126.40435547 -18.17032227 126.40435547 -20.00390625 126.3984375 C-21.10549072 126.39505371 -22.2070752 126.39166992 -23.34204102 126.38818359 C-24.65773071 126.19603271 -24.65773071 126.19603271 -26 126 C-26.66 125.01 -27.32 124.02 -28 123 C-27.01 123.33 -26.02 123.66 -25 124 C-23.15389468 124.08239169 -21.30494836 124.10743359 -19.45703125 124.09765625 C-17.84731445 124.09282227 -17.84731445 124.09282227 -16.20507812 124.08789062 C-15.08552734 124.07951172 -13.96597656 124.07113281 -12.8125 124.0625 C-11.68134766 124.05798828 -10.55019531 124.05347656 -9.38476562 124.04882812 C-6.58979073 124.03703498 -3.7949218 124.0205765 -1 124 C-0.67 123.34 -0.34 122.68 0 122 C0.99 122 1.98 122 3 122 C2.91612392 106.68370871 2.82099937 91.36751592 2.71247292 76.05138016 C2.66234495 68.93987429 2.61590208 61.82837996 2.578125 54.71679688 C2.54167392 47.8567799 2.49496602 40.99689436 2.44193649 34.13698578 C2.42336999 31.51669253 2.40827043 28.89637241 2.39665604 26.27603912 C2.37983243 22.61260581 2.35080618 18.94946092 2.31884766 15.28613281 C2.31668747 14.19712677 2.31452728 13.10812073 2.31230164 11.9861145 C2.30113815 10.98774567 2.28997467 9.98937683 2.2784729 8.96075439 C2.27294214 8.09426899 2.26741138 7.22778358 2.26171303 6.33504105 C1.97985012 3.82021985 1.2640313 2.17399065 0 0 Z " fill="#4C8F2B" transform="translate(182,53)"/>
<path d="M0 0 C0.70189453 0.00451172 1.40378906 0.00902344 2.12695312 0.01367188 C3.85550538 0.02543073 5.58401365 0.04336546 7.3125 0.0625 C7.3125 0.3925 7.3125 0.7225 7.3125 1.0625 C5.88357422 1.10117188 5.88357422 1.10117188 4.42578125 1.140625 C3.17152344 1.19734375 1.91726562 1.2540625 0.625 1.3125 C-0.61636719 1.35890625 -1.85773438 1.4053125 -3.13671875 1.453125 C-7.32385245 2.171709 -8.8020342 2.96394276 -11.6875 6.0625 C-12.17058035 9.04754518 -12.33268116 11.45829248 -12.27099609 14.43945312 C-12.27333252 15.2821727 -12.27566895 16.12489227 -12.27807617 16.9931488 C-12.27969037 19.77731389 -12.24566018 22.55982 -12.2109375 25.34375 C-12.2041476 27.27900596 -12.19942569 29.2142702 -12.19668579 31.14953613 C-12.18326855 36.24463731 -12.13896218 41.33904255 -12.08911133 46.43389893 C-12.05373533 50.59293126 -12.04063649 54.7518929 -12.02869225 58.91104889 C-12.01389824 63.86782651 -11.98868009 68.82452988 -11.9609375 73.78125 C-11.95602673 74.72787003 -11.95111595 75.67449005 -11.94605637 76.64979553 C-11.92976972 79.32846115 -11.90636327 82.00695987 -11.88037109 84.68554688 C-11.87611115 85.47839584 -11.8718512 86.27124481 -11.86746216 87.08811951 C-11.86077357 92.17199559 -11.86077357 92.17199559 -10.6875 97.0625 C-9.6975 97.3925 -8.7075 97.7225 -7.6875 98.0625 C-7.6875 98.7225 -7.6875 99.3825 -7.6875 100.0625 C-6.63691406 99.97871094 -5.58632813 99.89492187 -4.50390625 99.80859375 C2.92506437 99.25584296 9.91533505 98.87366992 17.3125 100.0625 C17.3125 100.3925 17.3125 100.7225 17.3125 101.0625 C12.89617823 101.20759751 8.48046807 101.29650818 4.0625 101.375 C2.80824219 101.41689453 1.55398437 101.45878906 0.26171875 101.50195312 C-1.54619141 101.52612305 -1.54619141 101.52612305 -3.390625 101.55078125 C-5.05593262 101.59005737 -5.05593262 101.59005737 -6.75488281 101.63012695 C-9.6875 101.0625 -9.6875 101.0625 -11.83943176 99.08062744 C-14.33419503 95.00636583 -14.24402987 91.89227629 -14.18920898 87.20483398 C-14.19461197 86.3229541 -14.20001495 85.44107422 -14.20558167 84.5324707 C-14.21806562 81.62416794 -14.20158146 78.71685565 -14.18359375 75.80859375 C-14.18374873 73.78507943 -14.18523757 71.76156481 -14.18800354 69.73805237 C-14.18938734 65.5004461 -14.17683141 61.26317837 -14.15405273 57.02563477 C-14.12565016 51.59249805 -14.12841067 46.15992305 -14.14114285 40.72674465 C-14.1480953 36.54974057 -14.14031597 32.37286647 -14.12788582 28.19587898 C-14.12336839 26.19239869 -14.12303705 24.18890446 -14.12695122 22.1854229 C-14.12985962 19.38691431 -14.11337479 16.58918201 -14.09155273 13.79077148 C-14.09605438 12.96209061 -14.10055603 12.13340973 -14.10519409 11.27961731 C-14.06239103 7.97814525 -13.93161235 5.51559932 -12.3497467 2.57948303 C-8.78769897 -0.6712775 -4.51960748 -0.05485985 0 0 Z " fill="#AADFEB" transform="translate(68.6875,77.9375)"/>
<path d="M0 0 C1.73421708 3.37715958 1.05703165 5.70059931 0.1875 9.3125 C-2.43223266 11.93223266 -4.16416422 12.02063314 -7.8125 12.3125 C-10.125 11.75 -10.125 11.75 -11.8125 10.3125 C-13.1693967 6.42272946 -12.85708509 4.4556416 -11.625 0.5 C-9.8125 -2.6875 -9.8125 -2.6875 -7.875 -3.75 C-4.36479926 -3.64363028 -2.52946944 -2.35502327 0 0 Z " fill="#B7E773" transform="translate(126.8125,53.6875)"/>
<path d="M0 0 C1.32 0 2.64 0 4 0 C5.1482685 2.296537 5.11561175 3.58313167 5.09765625 6.1328125 C5.09282227 7.34130859 5.09282227 7.34130859 5.08789062 8.57421875 C5.07951172 9.41597656 5.07113281 10.25773438 5.0625 11.125 C5.05798828 11.97449219 5.05347656 12.82398438 5.04882812 13.69921875 C5.03702874 15.79950909 5.01909306 17.8997633 5 20 C13.415 19.505 13.415 19.505 22 19 C19 22 19 22 16.82348633 22.34057617 C16.00130615 22.32486572 15.17912598 22.30915527 14.33203125 22.29296875 C13.43935547 22.28330078 12.54667969 22.27363281 11.62695312 22.26367188 C10.23379883 22.2259668 10.23379883 22.2259668 8.8125 22.1875 C7.87212891 22.17396484 6.93175781 22.16042969 5.96289062 22.14648438 C3.64134962 22.11113096 1.32096347 22.06178674 -1 22 C-1.02887814 18.52085059 -1.04675687 15.04173169 -1.0625 11.5625 C-1.07087891 10.56927734 -1.07925781 9.57605469 -1.08789062 8.55273438 C-1.09111328 7.60849609 -1.09433594 6.66425781 -1.09765625 5.69140625 C-1.10289307 4.81685791 -1.10812988 3.94230957 -1.11352539 3.04125977 C-1 1 -1 1 0 0 Z " fill="#A3D848" transform="translate(115,157)"/>
<path d="M0 0 C1.65 0 3.3 0 5 0 C5 6.93 5 13.86 5 21 C5.66 21.33 6.32 21.66 7 22 C4.03 22 1.06 22 -2 22 C-1.86181468 18.52048477 -1.71317399 15.04149505 -1.5625 11.5625 C-1.52318359 10.56927734 -1.48386719 9.57605469 -1.44335938 8.55273438 C-1.40146484 7.60849609 -1.35957031 6.66425781 -1.31640625 5.69140625 C-1.27974854 4.81685791 -1.24309082 3.94230957 -1.20532227 3.04125977 C-1 1 -1 1 0 0 Z " fill="#E3586A" transform="translate(18,157)"/>
<path d="M0 0 C1.32 0 2.64 0 4 0 C4 6.93 4 13.86 4 21 C2.35 21 0.7 21 -1 21 C-1.02888146 17.68751813 -1.04675799 14.37506833 -1.0625 11.0625 C-1.07087891 10.11697266 -1.07925781 9.17144531 -1.08789062 8.19726562 C-1.09111328 7.29814453 -1.09433594 6.39902344 -1.09765625 5.47265625 C-1.10289307 4.64000244 -1.10812988 3.80734863 -1.11352539 2.94946289 C-1 1 -1 1 0 0 Z " fill="#69D5F0" transform="translate(67,157)"/>
<path d="M0 0 C0.75410156 0.01289062 1.50820313 0.02578125 2.28515625 0.0390625 C3.45111328 0.08933594 3.45111328 0.08933594 4.640625 0.140625 C5.82978516 0.16769531 5.82978516 0.16769531 7.04296875 0.1953125 C8.99270848 0.24229418 10.94182378 0.31403456 12.890625 0.390625 C12.890625 0.720625 12.890625 1.050625 12.890625 1.390625 C7.940625 1.390625 2.990625 1.390625 -2.109375 1.390625 C-2.109375 2.050625 -2.109375 2.710625 -2.109375 3.390625 C-3.429375 3.390625 -4.749375 3.390625 -6.109375 3.390625 C-6.439375 22.860625 -6.769375 42.330625 -7.109375 62.390625 C-7.439375 62.390625 -7.769375 62.390625 -8.109375 62.390625 C-8.20210504 54.89757486 -8.273155 47.4045843 -8.31662369 39.91109085 C-8.33748808 36.4314063 -8.36578321 32.95211467 -8.41113281 29.47265625 C-8.46295727 25.47131607 -8.48232953 21.47038781 -8.5 17.46875 C-8.52064514 16.22071594 -8.54129028 14.97268188 -8.56256104 13.68682861 C-8.56286316 12.52592712 -8.56316528 11.36502563 -8.56347656 10.16894531 C-8.57235901 9.14746399 -8.58124146 8.12598267 -8.59039307 7.07354736 C-7.73330202 2.29304346 -4.80293208 -0.1455434 0 0 Z " fill="#CD7C88" transform="translate(15.109375,113.609375)"/>
<path d="M0 0 C2.14453125 0.26953125 2.14453125 0.26953125 4.8125 0.8125 C5.68519531 0.98394531 6.55789062 1.15539063 7.45703125 1.33203125 C10 2 10 2 14 4 C13.01 6.97 12.02 9.94 11 13 C10.29875 12.401875 9.5975 11.80375 8.875 11.1875 C6.07928131 8.88490993 6.07928131 8.88490993 2.75 7.5625 C0 6 0 6 -0.9375 3.375 C-0.958125 2.59125 -0.97875 1.8075 -1 1 C-0.67 0.67 -0.34 0.34 0 0 Z " fill="#9DE4F3" transform="translate(103,48)"/>
<path d="M0 0 C0.33 0 0.66 0 1 0 C1 23.43 1 46.86 1 71 C1.66 71 2.32 71 3 71 C3 71.66 3 72.32 3 73 C3.598125 72.814375 4.19625 72.62875 4.8125 72.4375 C7 72 7 72 10 73 C10 73.66 10 74.32 10 75 C6.88443799 75.21242468 4.65595363 75.32495303 1.82525635 73.9226532 C-0.87989634 71.07315183 -0.48117378 68.92814373 -0.45410156 65.05004883 C-0.45468567 64.34735367 -0.45526978 63.64465851 -0.45587158 62.92066956 C-0.4530857 60.59895351 -0.42197257 58.27852285 -0.390625 55.95703125 C-0.38316434 54.34706829 -0.37747058 52.73709625 -0.37347412 51.12712097 C-0.35820384 46.89033929 -0.31891056 42.6541064 -0.2746582 38.4175415 C-0.23373523 34.09419174 -0.2154695 29.77075326 -0.1953125 25.44726562 C-0.15241717 16.96459194 -0.08414959 8.48236424 0 0 Z " fill="#AFD47A" transform="translate(104,104)"/>
<path d="M0 0 C3.875 1.875 3.875 1.875 5 3 C5.09429342 5.17805719 5.11742538 7.3592128 5.11352539 9.53930664 C5.11367142 10.22220261 5.11381744 10.90509857 5.1139679 11.60868835 C5.11326876 13.87587614 5.1054764 16.14298274 5.09765625 18.41015625 C5.09579207 19.97814387 5.09436817 21.54613207 5.09336853 23.11412048 C5.08954334 27.24876503 5.07971306 31.38337466 5.06866455 35.51800537 C5.05845044 39.73400398 5.05387091 43.95000822 5.04882812 48.16601562 C5.03809079 56.44402647 5.02101436 64.7220089 5 73 C4.67 73 4.34 73 4 73 C4 50.56 4 28.12 4 5 C2.68 5 1.36 5 0 5 C0 3.35 0 1.7 0 0 Z " fill="#B6ED5C" transform="translate(123,101)"/>
<path d="M0 0 C1.50440887 2.8504589 1.11000763 4.23088413 0.1875 7.25 C-1.1325 6.92 -2.4525 6.59 -3.8125 6.25 C-4.1425 4.6 -4.4725 2.95 -4.8125 1.25 C-9.55129768 0.10149303 -14.27541362 -0.07901557 -19.125 -0.3125 C-19.96095703 -0.35568359 -20.79691406 -0.39886719 -21.65820312 -0.44335938 C-23.70946935 -0.54885307 -25.7609648 -0.64987315 -27.8125 -0.75 C-27.8125 -1.08 -27.8125 -1.41 -27.8125 -1.75 C-24.22963181 -1.94720979 -20.64619943 -2.13107522 -17.0625 -2.3125 C-16.04671875 -2.36857422 -15.0309375 -2.42464844 -13.984375 -2.48242188 C-13.0046875 -2.53076172 -12.025 -2.57910156 -11.015625 -2.62890625 C-10.11489258 -2.6760376 -9.21416016 -2.72316895 -8.28613281 -2.77172852 C-4.72965864 -2.74048827 -2.59142744 -2.50206787 0 0 Z " fill="#4EA32A" transform="translate(183.8125,54.75)"/>
<path d="M0 0 C3.13194005 2.13541367 4.88956088 3.83434133 7 7 C7.07905064 9.33199388 7.08798769 11.66832622 7 14 C6.67 14 6.34 14 6 14 C6 12.02 6 10.04 6 8 C5.34 8 4.68 8 4 8 C3.67 7.34 3.34 6.68 3 6 C-0.02934491 5.34227572 -0.02934491 5.34227572 -3 5 C-3.33 5.66 -3.66 6.32 -4 7 C-5.70884005 5.37660195 -7.37446717 3.70680947 -9 2 C-9 1.34 -9 0.68 -9 0 C-5.39965901 -1.20011366 -3.65462165 -0.95020163 0 0 Z " fill="#72D5EE" transform="translate(77,25)"/>
<path d="M0 0 C0.33 0 0.66 0 1 0 C1.02505615 0.55461914 1.0501123 1.10923828 1.07592773 1.68066406 C1.19227927 4.20398843 1.31482754 6.72697536 1.4375 9.25 C1.47681641 10.12269531 1.51613281 10.99539062 1.55664062 11.89453125 C1.59853516 12.73886719 1.64042969 13.58320313 1.68359375 14.453125 C1.72025146 15.22817383 1.75690918 16.00322266 1.79467773 16.80175781 C2.0010566 19.01131224 2.21843528 20.91849453 3 23 C3.99 23.33 4.98 23.66 6 24 C6 24.66 6 25.32 6 26 C7.05058594 25.91621094 8.10117187 25.83242187 9.18359375 25.74609375 C16.61256437 25.19334296 23.60283505 24.81116992 31 26 C31 26.33 31 26.66 31 27 C26.58367823 27.14509751 22.16796807 27.23400818 17.75 27.3125 C16.49574219 27.35439453 15.24148437 27.39628906 13.94921875 27.43945312 C12.14130859 27.46362305 12.14130859 27.46362305 10.296875 27.48828125 C8.63156738 27.52755737 8.63156738 27.52755737 6.93261719 27.56762695 C4 27 4 27 1.63085938 24.80078125 C-0.14899747 21.74411692 -0.47237561 20.19405749 -0.390625 16.69921875 C-0.37773438 15.72275391 -0.36484375 14.74628906 -0.3515625 13.74023438 C-0.31804688 12.73283203 -0.28453125 11.72542969 -0.25 10.6875 C-0.23195312 9.66076172 -0.21390625 8.63402344 -0.1953125 7.57617188 C-0.14831063 5.04982115 -0.08262272 2.52539531 0 0 Z " fill="#9DD8E6" transform="translate(55,152)"/>
<path d="M0 0 C0.66 0.33 1.32 0.66 2 1 C1.505 1.433125 1.01 1.86625 0.5 2.3125 C-1.33218192 3.99740483 -1.33218192 3.99740483 -1 7 C-0.01 7.66 0.98 8.32 2 9 C-0.64 10.98 -3.28 12.96 -6 15 C-6.33 13.68 -6.66 12.36 -7 11 C-5.35 10.67 -3.7 10.34 -2 10 C-2 9.34 -2 8.68 -2 8 C-4.47266765 8.34444881 -4.47266765 8.34444881 -7 9 C-7.33 9.66 -7.66 10.32 -8 11 C-10.90050829 12.88141079 -13.88656995 14.50094109 -17 16 C-12.52034826 9.97564076 -6.84211711 5.65604971 -1 1 C-0.67 0.67 -0.34 0.34 0 0 Z " fill="#9FD14B" transform="translate(150,28)"/>
<path d="M0 0 C1.32 0.33 2.64 0.66 4 1 C3.25 7.75 3.25 7.75 1 10 C-2.09643784 10.80776639 -4.21998291 11.23189697 -7.3125 10.3125 C-9 9 -9 9 -10 5 C-5.545 5.99 -5.545 5.99 -1 7 C-1 6.01 -1 5.02 -1 4 C-0.6937566 2.66018514 -0.36548445 1.32488113 0 0 Z " fill="#B7DE7A" transform="translate(124,55)"/>
<path d="M0 0 C0.66 0 1.32 0 2 0 C2.33 1.98 2.66 3.96 3 6 C4.32 6 5.64 6 7 6 C7 6.66 7 7.32 7 8 C8.65 7.67 10.3 7.34 12 7 C12.33 5.02 12.66 3.04 13 1 C13.66 1 14.32 1 15 1 C14.51470588 7.43014706 14.51470588 7.43014706 12.25 9.9375 C9.45370167 11.25797421 8.05488134 11.59607441 5 11 C2.1875 8.875 2.1875 8.875 0 6 C-0.3125 2.6875 -0.3125 2.6875 0 0 Z " fill="#5FB332" transform="translate(162,14)"/>
<path d="M0 0 C1.32 0.33 2.64 0.66 4 1 C2.66687383 7.42324425 2.66687383 7.42324425 -0.3125 10 C-3.38454582 11.14308682 -4.9121694 10.97046104 -8 10 C-8.33 9.01 -8.66 8.02 -9 7 C-6.61435923 7.57584432 -4.33317216 8.22227595 -2 9 C-2.185625 8.38125 -2.37125 7.7625 -2.5625 7.125 C-3 5 -3 5 -2 3 C-1.01 2.67 -0.02 2.34 1 2 C0.67 1.34 0.34 0.68 0 0 Z " fill="#E2727F" transform="translate(28,77)"/>
<path d="M0 0 C0.66 0.33 1.32 0.66 2 1 C2 6.61 2 12.22 2 18 C1.01 17.67 0.02 17.34 -1 17 C-1.02684679 14.35409986 -1.04676357 11.70846904 -1.0625 9.0625 C-1.07087891 8.30775391 -1.07925781 7.55300781 -1.08789062 6.77539062 C-1.09652441 4.85005687 -1.05224333 2.92464419 -1 1 C-0.67 0.67 -0.34 0.34 0 0 Z " fill="#63D9FA" transform="translate(68,159)"/>
<path d="M0 0 C1.24546405 2.49092811 0.7767578 3.41080733 0 6 C1.65 5.67 3.3 5.34 5 5 C2.14723863 7.93200474 -0.65079784 10.64315404 -4 13 C-4 11.02 -4 9.04 -4 7 C-4.99 6.67 -5.98 6.34 -7 6 C-4.69 4.02 -2.38 2.04 0 0 Z " fill="#D15C6C" transform="translate(39,61)"/>
<path d="M0 0 C3.25 -0.3125 3.25 -0.3125 7 0 C9.4375 2.5 9.4375 2.5 11 5 C10.34 5 9.68 5 9 5 C9 6.98 9 8.96 9 11 C7.0625 10.1875 7.0625 10.1875 5 9 C4.67 8.01 4.34 7.02 4 6 C4.66 5.01 5.32 4.02 6 3 C4.68 3 3.36 3 2 3 C2 2.34 2 1.68 2 1 C1.34 0.67 0.68 0.34 0 0 Z " fill="#4CBF26" transform="translate(166,10)"/>
<path d="M0 0 C0.33 0 0.66 0 1 0 C1 5.94 1 11.88 1 18 C0.01 17.67 -0.98 17.34 -2 17 C-2.05398987 14.72942623 -2.09278742 12.45848712 -2.125 10.1875 C-2.14820312 8.92292969 -2.17140625 7.65835938 -2.1953125 6.35546875 C-2 3 -2 3 0 0 Z " fill="#A3E430" transform="translate(118,158)"/>
<path d="M0 0 C0.33 0 0.66 0 1 0 C1.36500524 6.44842599 1.36500524 6.44842599 -0.12866211 8.70556641 C-2.81739618 10.56540568 -4.88064634 10.38846987 -8.12890625 10.3984375 C-9.92811523 10.40423828 -9.92811523 10.40423828 -11.76367188 10.41015625 C-13.01728516 10.39855469 -14.27089844 10.38695312 -15.5625 10.375 C-17.4487207 10.39240234 -17.4487207 10.39240234 -19.37304688 10.41015625 C-21.17032227 10.40435547 -21.17032227 10.40435547 -23.00390625 10.3984375 C-24.10549072 10.39505371 -25.2070752 10.39166992 -26.34204102 10.38818359 C-27.21916748 10.26008301 -28.09629395 10.13198242 -29 10 C-29.66 9.01 -30.32 8.02 -31 7 C-30.01 7.33 -29.02 7.66 -28 8 C-26.15389468 8.08239169 -24.30494836 8.10743359 -22.45703125 8.09765625 C-20.84731445 8.09282227 -20.84731445 8.09282227 -19.20507812 8.08789062 C-18.08552734 8.07951172 -16.96597656 8.07113281 -15.8125 8.0625 C-14.68134766 8.05798828 -13.55019531 8.05347656 -12.38476562 8.04882812 C-9.58979073 8.03703498 -6.7949218 8.0205765 -4 8 C-3.67 7.34 -3.34 6.68 -3 6 C-2.01 6 -1.02 6 0 6 C0 4.02 0 2.04 0 0 Z " fill="#4F8E39" transform="translate(185,169)"/>
<path d="M0 0 C1.7074998 1.28062485 3.37373596 2.61767557 5 4 C5 4.66 5 5.32 5 6 C4.01 6.33 3.02 6.66 2 7 C1.67 7.66 1.34 8.32 1 9 C0.01 8.67 -0.98 8.34 -2 8 C-2 7.34 -2 6.68 -2 6 C-2.66 6 -3.32 6 -4 6 C-4.33 6.66 -4.66 7.32 -5 8 C-5 6.35 -5 4.7 -5 3 C-3.35 3 -1.7 3 0 3 C0 2.01 0 1.02 0 0 Z " fill="#B7EA65" transform="translate(122,50)"/>
<path d="M0 0 C0.66 0.33 1.32 0.66 2 1 C1.01 1.33 0.02 1.66 -1 2 C-1.06058594 2.75925781 -1.12117188 3.51851562 -1.18359375 4.30078125 C-1.26738281 5.29464844 -1.35117188 6.28851563 -1.4375 7.3125 C-1.51871094 8.29863281 -1.59992188 9.28476562 -1.68359375 10.30078125 C-2 13 -2 13 -3 16 C-3.99 16 -4.98 16 -6 16 C-5.78943471 5.06974729 -5.78943471 5.06974729 -2.4375 1.8125 C-1.633125 1.214375 -0.82875 0.61625 0 0 Z " fill="#9ECEDD" transform="translate(66,26)"/>
<path d="M0 0 C4.54805635 -0.17835515 7.8794254 0.00214565 12 2 C10.68 2.33 9.36 2.66 8 3 C8 3.66 8 4.32 8 5 C8 5.66 8 6.32 8 7 C5.525 6.01 5.525 6.01 3 5 C3 4.34 3 3.68 3 3 C1.68 3 0.36 3 -1 3 C-0.67 2.01 -0.34 1.02 0 0 Z " fill="#9AE2F4" transform="translate(96,46)"/>
<path d="M0 0 C0.99 0.33 1.98 0.66 3 1 C2.01 3.97 1.02 6.94 0 10 C-0.70125 9.401875 -1.4025 8.80375 -2.125 8.1875 C-4.97030977 6.02259039 -7.76632767 4.50403364 -11 3 C-7.20720018 1.73573339 -5.65934648 2.59854816 -2 4 C-1.34 4.33 -0.68 4.66 0 5 C0 3.35 0 1.7 0 0 Z " fill="#A6E4CC" transform="translate(114,51)"/>
<path d="M0 0 C0.66 0.33 1.32 0.66 2 1 C1.484375 1.37125 0.96875 1.7425 0.4375 2.125 C-0.2740625 3.053125 -0.2740625 3.053125 -1 4 C-0.835 4.99 -0.67 5.98 -0.5 7 C-0.335 7.99 -0.17 8.98 0 10 C-1.4375 11.875 -1.4375 11.875 -3 13 C-4.32 11.02 -5.64 9.04 -7 7 C-4.66666667 4.66666667 -2.33333333 2.33333333 0 0 Z " fill="#A1D440" transform="translate(131,44)"/>
<path d="M0 0 C2.475 0.495 2.475 0.495 5 1 C5.33 1.99 5.66 2.98 6 4 C11.08303686 4.11320856 11.08303686 4.11320856 16 3 C16 2.34 16 1.68 16 1 C16.66 1 17.32 1 18 1 C17 4 17 4 14 6 C11.08203125 6.1953125 11.08203125 6.1953125 7.8125 6.125 C6.72582031 6.10695313 5.63914062 6.08890625 4.51953125 6.0703125 C3.27236328 6.03550781 3.27236328 6.03550781 2 6 C1.34 4.02 0.68 2.04 0 0 Z " fill="#7ED5E8" transform="translate(63,42)"/>
<path d="M0 0 C0.33 0 0.66 0 1 0 C1.22171552 2.60365928 1.42784859 5.20696493 1.625 7.8125 C1.68945312 8.55048828 1.75390625 9.28847656 1.8203125 10.04882812 C2.2265625 15.66015625 2.2265625 15.66015625 0 19 C-1.58696844 15.82606311 -1.1431447 12.41825795 -1.125 8.9375 C-1.12886719 8.19177734 -1.13273438 7.44605469 -1.13671875 6.67773438 C-1.12663501 1.12663501 -1.12663501 1.12663501 0 0 Z " fill="#E9E9E9" transform="translate(201,105)"/>
<path d="M0 0 C1.65 0.33 3.3 0.66 5 1 C5.33 2.65 5.66 4.3 6 6 C4.35 6 2.7 6 1 6 C0.67 6.66 0.34 7.32 0 8 C-0.66 7.67 -1.32 7.34 -2 7 C-1.34 4.69 -0.68 2.38 0 0 Z " fill="#D36073" transform="translate(59,42)"/>
<path d="M0 0 C0.75732422 0.00644531 1.51464844 0.01289062 2.29492188 0.01953125 C3.08060547 0.03628906 3.86628906 0.05304688 4.67578125 0.0703125 C5.47306641 0.07933594 6.27035156 0.08835937 7.09179688 0.09765625 C9.05742025 0.12119665 11.022889 0.15706703 12.98828125 0.1953125 C12.98828125 0.5253125 12.98828125 0.8553125 12.98828125 1.1953125 C8.03828125 1.1953125 3.08828125 1.1953125 -2.01171875 1.1953125 C-2.01171875 1.8553125 -2.01171875 2.5153125 -2.01171875 3.1953125 C-3.33171875 3.1953125 -4.65171875 3.1953125 -6.01171875 3.1953125 C-6.01171875 6.1653125 -6.01171875 9.1353125 -6.01171875 12.1953125 C-6.34171875 12.1953125 -6.67171875 12.1953125 -7.01171875 12.1953125 C-7.09262846 10.57112505 -7.1508687 8.94579505 -7.19921875 7.3203125 C-7.23402344 6.41539063 -7.26882812 5.51046875 -7.3046875 4.578125 C-7.20800781 3.79179688 -7.11132812 3.00546875 -7.01171875 2.1953125 C-3.96490814 0.16410543 -3.41053551 -0.05128625 0 0 Z " fill="#D77682" transform="translate(15.01171875,113.8046875)"/>
<path d="M0 0 C2.475 0.99 2.475 0.99 5 2 C4.01 2.495 4.01 2.495 3 3 C2.34786708 5.02463255 2.34786708 5.02463255 2 7 C0.35 6.67 -1.3 6.34 -3 6 C-2.42655063 3.13275314 -2.1385485 2.1385485 0 0 Z " fill="#9FDD30" transform="translate(151,29)"/>
<path d="M0 0 C1.45792884 -0.05399736 2.91642712 -0.09279177 4.375 -0.125 C5.18710937 -0.14820312 5.99921875 -0.17140625 6.8359375 -0.1953125 C9 0 9 0 11 2 C9.68 2 8.36 2 7 2 C7.33 2.99 7.66 3.98 8 5 C7.01 5.33 6.02 5.66 5 6 C4.34 5.67 3.68 5.34 3 5 C3 4.34 3 3.68 3 3 C2.01 2.67 1.02 2.34 0 2 C0 1.34 0 0.68 0 0 Z " fill="#D85B69" transform="translate(28,114)"/>
<path d="M0 0 C0.721875 0.103125 1.44375 0.20625 2.1875 0.3125 C1.56875 0.35375 0.95 0.395 0.3125 0.4375 C-0.38875 0.72625 -1.09 1.015 -1.8125 1.3125 C-3.1170656 4.30865946 -3.1170656 4.30865946 -3.8125 7.3125 C-4.4725 7.3125 -5.1325 7.3125 -5.8125 7.3125 C-5.8125 8.9625 -5.8125 10.6125 -5.8125 12.3125 C-6.4725 11.9825 -7.1325 11.6525 -7.8125 11.3125 C-8.28433746 7.25469787 -8.14579645 5.75054676 -5.625 2.4375 C-2.8125 0.3125 -2.8125 0.3125 0 0 Z " fill="#DC7882" transform="translate(23.8125,71.6875)"/>
<path d="M0 0 C2 3 2 3 3 6 C7.62 6 12.24 6 17 6 C17 6.66 17 7.32 17 8 C11.39 8 5.78 8 0 8 C-0.33 5.69 -0.66 3.38 -1 1 C-0.67 0.67 -0.34 0.34 0 0 Z " fill="#EAEAEA" transform="translate(571,108)"/>
<path d="M0 0 C7.38461538 -0.49230769 7.38461538 -0.49230769 10.5 2 C10.995 2.66 11.49 3.32 12 4 C9.69 3.34 7.38 2.68 5 2 C5 2.66 5 3.32 5 4 C3.0625 3.6875 3.0625 3.6875 1 3 C0.67 2.01 0.34 1.02 0 0 Z " fill="#A8D746" transform="translate(125,100)"/>
<path d="M0 0 C4.95 1.98 4.95 1.98 10 4 C9.67 4.66 9.34 5.32 9 6 C2.25 5.125 2.25 5.125 0 4 C0 2.68 0 1.36 0 0 Z " fill="#9BDEEF" transform="translate(84,38)"/>
<path d="M0 0 C0.66 0.33 1.32 0.66 2 1 C1.67 2.98 1.34 4.96 1 7 C-0.65 7 -2.3 7 -4 7 C-3.43628586 3.73045798 -2.50037734 2.17424117 0 0 Z " fill="#E75366" transform="translate(34,67)"/>
<path d="M0 0 C2.0625 0.4375 2.0625 0.4375 4 1 C4 1.66 4 2.32 4 3 C2.02 3.99 2.02 3.99 0 5 C0 5.99 0 6.98 0 8 C-1.32 7.67 -2.64 7.34 -4 7 C-4 6.34 -4 5.68 -4 5 C-3.34 5 -2.68 5 -2 5 C-1.7834375 4.0409375 -1.7834375 4.0409375 -1.5625 3.0625 C-1 1 -1 1 0 0 Z " fill="#A0E12E" transform="translate(144,35)"/>
<path d="M0 0 C2 3 2 3 2 6 C-3.94 6 -9.88 6 -16 6 C-16 5.67 -16 5.34 -16 5 C-11.05 4.67 -6.1 4.34 -1 4 C-0.67 2.68 -0.34 1.36 0 0 Z " fill="#ECECEC" transform="translate(380,151)"/>
<path d="M0 0 C2.47598865 1.19805902 2.96367818 2.42179364 3.9375 4.9375 C2.9475 5.4325 2.9475 5.4325 1.9375 5.9375 C1.6075 4.9475 1.2775 3.9575 0.9375 2.9375 C0.2775 3.5975 -0.3825 4.2575 -1.0625 4.9375 C-2.3825 4.2775 -3.7025 3.6175 -5.0625 2.9375 C-2.64829882 -0.08025148 -2.64829882 -0.08025148 0 0 Z " fill="#98D440" transform="translate(162.0625,20.0625)"/>
<path d="M0 0 C2.31 0 4.62 0 7 0 C7.66 1.32 8.32 2.64 9 4 C8.01 4.33 7.02 4.66 6 5 C6 4.34 6 3.68 6 3 C4.68 3 3.36 3 2 3 C2 2.34 2 1.68 2 1 C1.34 0.67 0.68 0.34 0 0 Z " fill="#50B031" transform="translate(166,10)"/>
<path d="M0 0 C0.99 0.33 1.98 0.66 3 1 C2.071875 2.546875 2.071875 2.546875 1.125 4.125 C-0.70698045 7.31472483 -1.9635747 10.45888021 -3 14 C-4.37095624 10.30962722 -3.60010967 8.29116165 -2.0625 4.75 C-1.68222656 3.85796875 -1.30195312 2.9659375 -0.91015625 2.046875 C-0.60980469 1.37140625 -0.30945313 0.6959375 0 0 Z " fill="#E6E6E6" transform="translate(700,100)"/>
<path d="M0 0 C1.0625 1.8125 1.0625 1.8125 2 4 C1.67 4.99 1.34 5.98 1 7 C-0.32 6.34 -1.64 5.68 -3 5 C-1.125 1.125 -1.125 1.125 0 0 Z " fill="#A5D741" transform="translate(155,24)"/>
<path d="M0 0 C0.66 0 1.32 0 2 0 C2 2.31 2 4.62 2 7 C0.35 7 -1.3 7 -3 7 C-2.34 6.34 -1.68 5.68 -1 5 C-0.35232207 2.42938689 -0.35232207 2.42938689 0 0 Z " fill="#E8E8E8" transform="translate(629,101)"/>
<path d="M0 0 C2.475 0.495 2.475 0.495 5 1 C5 2.65 5 4.3 5 6 C4.01 6 3.02 6 2 6 C1.34 4.02 0.68 2.04 0 0 Z " fill="#AFC7DA" transform="translate(63,42)"/>
<path d="M0 0 C2.96175123 0.61277612 4.38058783 1.25372522 7 3 C5.35 3.33 3.7 3.66 2 4 C1.34 2.68 0.68 1.36 0 0 Z " fill="#D66D76" transform="translate(19,84)"/>
<path d="M0 0 C2 2 2 2 2 5 C0.125 5.625 0.125 5.625 -2 6 C-2.66 5.34 -3.32 4.68 -4 4 C-2.68 2.68 -1.36 1.36 0 0 Z " fill="#EB556A" transform="translate(48,55)"/>
</svg>
